<svg xmlns="http://www.w3.org/2000/svg" xmlns:xlink="http://www.w3.org/1999/xlink" viewBox="0 0 1051.21 450.98"><defs><style>.cls-1,.cls-15,.cls-17,.cls-22,.cls-27,.cls-31{isolation:isolate;}.cls-2{fill:url(#linear-gradient);}.cls-17,.cls-3{fill:#fff;}.cls-4{fill:#9881b7;opacity:0.55;}.cls-14,.cls-4,.cls-8{mix-blend-mode:multiply;}.cls-5{fill:#fff9fd;}.cls-6{fill:#292c3d;}.cls-7{fill:#0254e4;}.cls-8{fill:#00a1cc;opacity:0.65;}.cls-9{fill:#f9a57e;}.cls-10{fill:#e76f59;}.cls-11{fill:#e8a393;}.cls-12{fill:#4d505e;}.cls-13{fill:#3d3848;}.cls-14{fill:#ca0045;opacity:0.32;}.cls-15,.cls-16{fill:#6c63ff;}.cls-15,.cls-22,.cls-27{opacity:0.1;}.cls-17{opacity:0.4;}.cls-18,.cls-19,.cls-27{fill:none;stroke-miterlimit:10;}.cls-18,.cls-19{stroke:#535461;}.cls-19{stroke-width:2px;}.cls-20{fill:#fc6681;}.cls-21{fill:#ffd037;}.cls-23{fill:url(#linear-gradient-2);}.cls-24{fill:#e2e2ec;}.cls-25{fill:#f1f2fb;}.cls-26{fill:#e8eaf8;}.cls-27{stroke:#000;stroke-width:4px;}.cls-28{fill:url(#linear-gradient-3);}.cls-29{fill:#fdc2cc;}.cls-30{fill:#5f5d7e;}.cls-31{opacity:0.15;}.cls-32{fill:#d39999;}.cls-33{fill:#865a61;}</style><linearGradient id="linear-gradient" x1="526.06" y1="-272.52" x2="526.06" y2="263.05" gradientUnits="userSpaceOnUse"><stop offset="0" stop-color="#00c9ff"/><stop offset="0.27" stop-color="#00caf0"/><stop offset="0.78" stop-color="#00cbca"/><stop offset="1" stop-color="#00ccb8"/></linearGradient><linearGradient id="linear-gradient-2" x1="605.87" y1="128.45" x2="605.87" y2="264.8" gradientTransform="matrix(1, 0, 0, -1, -60.75, 392.18)" gradientUnits="userSpaceOnUse"><stop offset="0" stop-color="gray" stop-opacity="0.25"/><stop offset="0.54" stop-color="gray" stop-opacity="0.12"/><stop offset="1" stop-color="gray" stop-opacity="0.1"/></linearGradient><linearGradient id="linear-gradient-3" x1="1096.9" y1="106.75" x2="1096.9" y2="273.28" gradientTransform="translate(1708.25 392.18) rotate(180)" xlink:href="#linear-gradient-2"/></defs><title>bnr1</title><g class="cls-1"><g id="Layer_1" data-name="Layer 1"><rect class="cls-2" x="1.06" y="0.36" width="1050" height="450"/><path class="cls-3" d="M226.6,426.58H214.36v-3H226.6Zm-24.49,0H189.87v-3h12.24Zm-24.48,0H165.38v-3h12.25Zm-24.49,0H140.9v-3h12.24Zm-24.49,0H116.41v-3h12.24Zm-24.48,0H91.92v-3h12.25Zm-24.49,0H67.44v-3H79.68Zm-24.49,0H43v-3H55.19ZM40.05,417.3H37V405.14h3.06Zm0-24.33H37V380.81h3.06Zm0-24.32H37V356.48h3.06Zm0-24.33H37V332.15h3.06Z" transform="translate(1.06 0.36)"/><path class="cls-3" d="M32.77,332.48a5.75,5.75,0,1,1,5.75,5.71A5.73,5.73,0,0,1,32.77,332.48Z" transform="translate(1.06 0.36)"/><path class="cls-3" d="M32,332.48A6.52,6.52,0,1,0,38.52,326,6.5,6.5,0,0,0,32,332.48Zm11.51,0a5,5,0,1,1-5-5,5,5,0,0,1,5,5Z" transform="translate(1.06 0.36)"/><path class="cls-3" d="M230.33,430.78a5.72,5.72,0,1,0-5.76-5.72A5.74,5.74,0,0,0,230.33,430.78Z" transform="translate(1.06 0.36)"/><path class="cls-3" d="M230.33,431.54a6.48,6.48,0,1,1,6.52-6.48,6.51,6.51,0,0,1-6.52,6.48Zm0-11.43a5,5,0,1,0,5,4.95,5,5,0,0,0-5-4.95Z" transform="translate(1.06 0.36)"/><path class="cls-3" d="M947.25,382.11H935v-3h12.25Zm-24.49,0H910.52v-3h12.24Zm34.25-5.5H954V364.45H957Zm0-24.33H954V340.12H957Z" transform="translate(1.06 0.36)"/><path class="cls-3" d="M892.76,386.31a5.72,5.72,0,1,1,5.76-5.72A5.73,5.73,0,0,1,892.76,386.31Z" transform="translate(1.06 0.36)"/><path class="cls-3" d="M892.76,387.07a6.48,6.48,0,1,0-6.52-6.48,6.51,6.51,0,0,0,6.52,6.48Zm0-11.43a5,5,0,1,1-5,4.95,5,5,0,0,1,5-4.95Z" transform="translate(1.06 0.36)"/><path class="cls-3" d="M961.23,337.54a5.75,5.75,0,1,0-5.75,5.72A5.73,5.73,0,0,0,961.23,337.54Z" transform="translate(1.06 0.36)"/><path class="cls-3" d="M962,337.54a6.52,6.52,0,1,1-6.52-6.48,6.51,6.51,0,0,1,6.52,6.48Zm-11.51,0a5,5,0,1,0,5-5,5,5,0,0,0-5,5Z" transform="translate(1.06 0.36)"/><path class="cls-3" d="M320.51,434.33l-15.42-22.81-7.63,8.41v14.4H282v-59h15.5v24.75l22.29-24.75h18l-22,24.41,23.38,34.6Z" transform="translate(1.06 0.36)"/><path class="cls-3" d="M359.06,375.32,386,410.84V375.32h14.4v59H386.84L359.9,399v35.36H345.41v-59Z" transform="translate(1.06 0.36)"/><path class="cls-3" d="M472.41,404.78C472.41,422,458.69,435,440.3,435s-32.11-13-32.11-30.22,13.73-29.88,32.11-29.88S472.41,387.69,472.41,404.78Zm-48.29.08c0,9.6,7.54,17,16.35,17s16-7.41,16-17-7.11-16.83-16-16.83A16.5,16.5,0,0,0,424.12,404.86Z" transform="translate(1.06 0.36)"/><path class="cls-3" d="M490,375.32,501.3,418l11.19-42.68h15.16L538.92,418l11.18-42.68H566l-19.57,59h-16l-10.68-39.82-11,39.82H492.83l-19.49-59Z" transform="translate(1.06 0.36)"/><path class="cls-3" d="M586.7,375.32v45.87h25.16v13.14H571.19v-59Z" transform="translate(1.06 0.36)"/><path class="cls-3" d="M665.74,375.32v12.29H634.39v11h28.3v12.2l-28.3.08V422h32.2v12.29h-47.7v-59Z" transform="translate(1.06 0.36)"/><path class="cls-3" d="M733.26,404.78c0,17.59-13,29.55-32.19,29.55h-25v-59h25.58C720.47,375.32,733.26,387.27,733.26,404.78Zm-15.84.17c0-10.19-6.69-17.09-16.09-17.09h-9.75v34h10.51C711.07,421.87,717.42,415.05,717.42,405Z" transform="translate(1.06 0.36)"/><path class="cls-3" d="M779.27,404.19h13.38v23.23A47.74,47.74,0,0,1,767.92,435c-18.13,0-31.77-13-31.77-30.14s14-30,32.78-30c8.9,0,18.3,3.37,24.4,8.75l-8.81,10.78a24.07,24.07,0,0,0-15.67-6.49,17,17,0,0,0,.17,33.93,24.4,24.4,0,0,0,10.25-2.78Z" transform="translate(1.06 0.36)"/><path class="cls-3" d="M849.75,375.32v12.29H818.41v11h28.3v12.2l-28.3.08V422H850.6v12.29H802.9v-59Z" transform="translate(1.06 0.36)"/><ellipse class="cls-4" cx="525.56" cy="274.21" rx="484.5" ry="26.15"/><polygon class="cls-5" points="898.69 215.25 882.97 215.25 882.97 199.68 874.12 199.68 874.12 215.25 858.4 215.25 858.4 224.02 874.12 224.02 874.12 239.59 882.97 239.59 882.97 224.02 898.69 224.02 898.69 215.25"/><path class="cls-5" d="M1050.15,89.23c0-.18,0-.36,0-.55,0-13-.19-26.05-.13-39.06a2.83,2.83,0,0,1,0-.3h-4V64.89h-15.72v8.76h15.72V89.23Z" transform="translate(1.06 0.36)"/><path class="cls-3" d="M1003.73,156.49H961.25L938.47,175l10.24-18.51H938.27a3.27,3.27,0,0,1-3.27-3.26v-42a3.27,3.27,0,0,1,3.27-3.26h65.46a3.27,3.27,0,0,1,3.27,3.26v42A3.27,3.27,0,0,1,1003.73,156.49Z" transform="translate(1.06 0.36)"/><path d="M967.43,147.5v-6.41H974v6.41Zm2.13-8.44-2-23.09h7L972,139.06Z" transform="translate(1.06 0.36)"/><path class="cls-3" d="M964.82,39.55c-9.49,0-18.88-.48-28.28.49a59.11,59.11,0,0,1-19.27-1.49,13.1,13.1,0,0,1-6.42-3.38c-1.91-1.76-4.4-3.74-1.5-6.12,6.35-5.23,13.82,5.33,19.89-1.11-.66-2.53-2.9-6.33-1.85-9.81.68-2.27,4.42-3.34,5.57-3.6,4.26-1,9.58-.77,13.45,2.89C951.11,21.85,955.82,21,961,21c2.31,0,12-2.41,13,4.48.63,4-1.82,2.23.3,5.9,1.53,2.63,4.32,2.15,6.11,2.13,1.15,0,4.36-.61,5.21,1.85,1.2,3.5-.63,5.5-1.94,6.17C980.43,43.23,967.65,39.55,964.82,39.55Z" transform="translate(1.06 0.36)"/><path class="cls-3" d="M813.43,128.67c5,.37,10,1.71,15.1.63a12.66,12.66,0,0,1,6.44.54c4.71,1.48,9.07,0,13.58-.84,2.75-.53,6.1.26,8.67-2.49,5.09-5.46-2.13-8-4.4-7.53-4,.84-7.49.34-11-3.48-1.82-2-3.67-2-5.66-2.42-1.62-.32-4.34-2-5.87-.39-.67.7-1,2.31-1.83,3.06-1.21,1-2.75,1-4,1.12-2.4.29-4.54-1.36-6.88-1.81-1.59-.29-13.33-4-13.95,0-.44,2.93,4.23,2.68,3.87,5.59-.26,2-5.29,1.88-6.17,2.15-1.33.41-6.45,0-6.5,4,3.69,2.47,7.24,2.82,11.1,2.83a1.71,1.71,0,0,0,.55-.09h0A17.83,17.83,0,0,1,813.43,128.67Z" transform="translate(1.06 0.36)"/><path class="cls-3" d="M725.45,157.26h-2.18v-10h2.18Zm0-20.06h-2.18v-10h2.18Zm0-20.06h-2.18v-10h2.18Zm0-20.06h-2.18v-10h2.18Zm0-20.06h-2.18V67h2.18Zm0-20.06h-2.18v-10h2.18Z" transform="translate(1.06 0.36)"/><path class="cls-3" d="M728.46,157c0,2.6-1.84,4.71-4.1,4.71s-4.11-2.11-4.11-4.71,1.84-4.72,4.11-4.72S728.46,154.39,728.46,157Z" transform="translate(1.06 0.36)"/><path class="cls-3" d="M729,157c0-2.95-2.09-5.34-4.65-5.34s-4.65,2.39-4.65,5.34,2.08,5.34,4.65,5.34S729,159.94,729,157Zm-8.21,0a3.59,3.59,0,1,1,3.56,4.09A3.86,3.86,0,0,1,720.8,157Z" transform="translate(1.06 0.36)"/><path class="cls-3" d="M728.46,46.91c0-2.61-1.84-4.72-4.1-4.72s-4.11,2.11-4.11,4.72,1.84,4.71,4.11,4.71S728.46,49.51,728.46,46.91Z" transform="translate(1.06 0.36)"/><path class="cls-3" d="M729,46.91c0,2.94-2.09,5.34-4.65,5.34s-4.65-2.4-4.65-5.34,2.08-5.34,4.65-5.34S729,44,729,46.91Zm-8.21,0a3.59,3.59,0,1,0,7.11,0,3.59,3.59,0,1,0-7.11,0Z" transform="translate(1.06 0.36)"/><path class="cls-3" d="M202.79,34.07h-8.73v-2.5h8.73Zm-17.46,0H176.6v-2.5h8.73Zm-17.46,0h-8.73v-2.5h8.73Zm-17.46,0h-8.73v-2.5h8.73Zm-17.46,0h-8.73v-2.5H133Zm-17.46,0h-8.73v-2.5h8.73ZM98,34.07H89.31v-2.5H98Zm-17.46,0H71.85v-2.5h8.73Zm-17.46,0H54.39v-2.5h8.73Zm-17.46,0H36.93v-2.5h8.73Zm-17.46,0H19.47v-2.5H28.2Zm-17.46,0H2v-2.5h8.73Z" transform="translate(1.06 0.36)"/><path class="cls-3" d="M202.55,28.11c2.27,0,4.11,2.11,4.11,4.71s-1.84,4.71-4.11,4.71-4.1-2.11-4.1-4.71S200.29,28.11,202.55,28.11Z" transform="translate(1.06 0.36)"/><path class="cls-3" d="M202.55,27.48c-2.56,0-4.64,2.4-4.64,5.34s2.08,5.34,4.64,5.34,4.65-2.39,4.65-5.34-2.08-5.34-4.65-5.34Zm0,9.43A3.85,3.85,0,0,1,199,32.82a3.59,3.59,0,1,1,7.11,0,3.86,3.86,0,0,1-3.56,4.09Z" transform="translate(1.06 0.36)"/><path class="cls-3" d="M532,53.15h9.55V72.31a30.91,30.91,0,0,1-17.64,6.25c-12.93,0-22.65-10.69-22.65-24.85S511.19,29,524.6,29A25.22,25.22,0,0,1,542,36.22l-6.28,8.88c-3-3.26-7.31-5.34-11.18-5.34-6.82,0-12,6-12,14s5.2,14,12.08,14A15.53,15.53,0,0,0,532,65.44Z" transform="translate(1.06 0.36)"/><path class="cls-3" d="M591.89,53.64c0,14.23-9.78,24.92-22.89,24.92s-22.89-10.69-22.89-24.92S555.89,29,569,29,591.89,39.55,591.89,53.64Zm-34.43.07c0,7.91,5.38,14,11.66,14s11.42-6.11,11.42-14-5.08-13.88-11.42-13.88S557.46,45.8,557.46,53.71Z" transform="translate(1.06 0.36)"/><path class="cls-3" d="M624.45,69.4h-18.3l-3,8.6H591.83L610,29.35h11.35L639.13,78H627.35Zm-3.26-9.72-5.8-17.35-5.92,17.35Z" transform="translate(1.06 0.36)"/><path class="cls-3" d="M654,29.35V67.18h17.94V78h-29V29.35Z" transform="translate(1.06 0.36)"/><path class="cls-6" d="M74.89,172.09a1.89,1.89,0,0,1-1.08-.34,1.86,1.86,0,0,1-.47-2.61s1.2-1.7,3.42-4.57a1.91,1.91,0,0,1,2.65-.35,1.86,1.86,0,0,1,.35,2.63c-2.14,2.77-3.3,4.42-3.32,4.44A1.88,1.88,0,0,1,74.89,172.09Z" transform="translate(1.06 0.36)"/><path class="cls-6" d="M280.77,198.92a35.21,35.21,0,0,1-6.38-.57,1.87,1.87,0,0,1-1.52-2.18,1.9,1.9,0,0,1,2.21-1.5,24,24,0,0,0,10.55-.15,1.87,1.87,0,1,1,1,3.62A23.27,23.27,0,0,1,280.77,198.92Zm-16.69-4.54a1.92,1.92,0,0,1-1-.27,44.61,44.61,0,0,1-9.29-7.45,1.87,1.87,0,0,1,.05-2.65,1.91,1.91,0,0,1,2.68.05,40.77,40.77,0,0,0,8.5,6.84,1.87,1.87,0,0,1,.66,2.57A1.93,1.93,0,0,1,264.08,194.38Zm32.33-1.14a1.91,1.91,0,0,1-1.56-.8,1.87,1.87,0,0,1,.49-2.61,70.43,70.43,0,0,0,8.61-7.1,1.89,1.89,0,0,1,2.67,0,1.87,1.87,0,0,1-.05,2.65,72.4,72.4,0,0,1-9.08,7.5A1.94,1.94,0,0,1,296.41,193.24Zm-48.48-14.85a1.91,1.91,0,0,1-1.55-.8c-2-2.8-4-6-6.27-9.75a1.86,1.86,0,0,1,.67-2.56,1.89,1.89,0,0,1,2.59.66c2.18,3.67,4.18,6.77,6.11,9.5a1.86,1.86,0,0,1-.46,2.61A1.9,1.9,0,0,1,247.93,178.39Zm65.23-.74a1.9,1.9,0,0,1-1.24-.47,1.85,1.85,0,0,1-.18-2.64c2.26-2.56,4.65-5.42,7.31-8.72a1.91,1.91,0,0,1,2.66-.3,1.86,1.86,0,0,1,.3,2.63c-2.69,3.35-5.12,6.25-7.42,8.86A1.92,1.92,0,0,1,313.16,177.65Zm14.45-17.81a1.84,1.84,0,0,1-1.15-.39,1.86,1.86,0,0,1-.35-2.62l2.25-2.9c1.6-2.09,3.2-4.15,4.78-6.16a1.89,1.89,0,0,1,2.65-.34,1.86,1.86,0,0,1,.34,2.63c-1.57,2-3.16,4.07-4.77,6.14l-2.25,2.91A1.88,1.88,0,0,1,327.61,159.84Zm-91.53-1a1.9,1.9,0,0,1-1.66-1l-1.87-3.4c-1.2-2.2-2.42-4.41-3.65-6.61a1.87,1.87,0,0,1,.74-2.55,1.91,1.91,0,0,1,2.57.73c1.24,2.21,2.45,4.43,3.67,6.64l1.86,3.39a1.88,1.88,0,0,1-1.66,2.77ZM85.47,158.7a1.89,1.89,0,0,1-1.22-.44,1.85,1.85,0,0,1-.22-2.64c2.49-2.93,5.07-5.83,7.67-8.62a1.91,1.91,0,0,1,2.68-.11,1.88,1.88,0,0,1,.11,2.65c-2.57,2.75-5.11,5.6-7.57,8.5A1.88,1.88,0,0,1,85.47,158.7Zm15.63-16.77a1.91,1.91,0,0,1-1.35-.56,1.86,1.86,0,0,1,0-2.65c2.79-2.74,5.65-5.39,8.47-7.88a1.9,1.9,0,0,1,2.67.16,1.85,1.85,0,0,1-.15,2.64c-2.78,2.45-5.58,5.05-8.33,7.75A1.9,1.9,0,0,1,101.1,141.93Zm240.73-.07a1.9,1.9,0,0,1-1.21-.44,1.86,1.86,0,0,1-.24-2.64c2.89-3.43,5.46-6.24,7.84-8.6a1.92,1.92,0,0,1,2.68,0,1.88,1.88,0,0,1,0,2.66c-2.3,2.27-4.79,5-7.61,8.34A1.87,1.87,0,0,1,341.83,141.86Zm-117-3a1.89,1.89,0,0,1-1.62-.9c-2.17-3.53-4.21-6.61-6.24-9.41a1.85,1.85,0,0,1,.43-2.61,1.88,1.88,0,0,1,2.63.42c2.1,2.88,4.2,6,6.41,9.66a1.87,1.87,0,0,1-1.61,2.84Zm-106.47-12.1a1.9,1.9,0,0,1-1.49-.72,1.86,1.86,0,0,1,.32-2.63c3.15-2.45,6.33-4.74,9.42-6.8a1.9,1.9,0,0,1,2.63.51,1.86,1.86,0,0,1-.52,2.6c-3,2-6.11,4.24-9.2,6.64A1.92,1.92,0,0,1,118.34,126.79Zm92.87-6.27a1.88,1.88,0,0,1-1.38-.6,59.5,59.5,0,0,0-8.29-7.36,1.86,1.86,0,0,1-.4-2.62,1.89,1.89,0,0,1,2.64-.4,63.45,63.45,0,0,1,8.82,7.83,1.85,1.85,0,0,1-.1,2.64A1.88,1.88,0,0,1,211.21,120.52Zm-73.72-6.4a1.89,1.89,0,0,1-1.66-1,1.86,1.86,0,0,1,.75-2.54,102.88,102.88,0,0,1,10.58-5,1.9,1.9,0,0,1,2.47,1,1.87,1.87,0,0,1-1,2.44,101.56,101.56,0,0,0-10.19,4.83A1.86,1.86,0,0,1,137.49,114.12Zm55.2-6.8a1.84,1.84,0,0,1-.72-.14,44,44,0,0,0-9.94-2.77l-.65-.1a1.88,1.88,0,0,1-1.6-2.13,1.91,1.91,0,0,1,2.15-1.58l.7.11a48.22,48.22,0,0,1,10.79,3,1.87,1.87,0,0,1-.73,3.6Zm-33.88-1.67a1.87,1.87,0,0,1-.46-3.69,66.9,66.9,0,0,1,11.7-1.82,1.87,1.87,0,1,1,.24,3.74,63,63,0,0,0-11,1.71A1.74,1.74,0,0,1,158.81,105.65Z" transform="translate(1.06 0.36)"/><polygon class="cls-7" points="419.94 90.9 355.63 130.23 358.56 107.25 419.94 90.9"/><polygon class="cls-6" points="419.94 90.9 355.63 130.23 363.7 113.86 419.94 90.9"/><polygon class="cls-3" points="382.31 137.96 342.26 89.41 428.97 80.36 382.31 137.96"/><polygon class="cls-7" points="426.25 81.84 358.25 108.79 363.17 114.76 426.25 81.84"/><polygon class="cls-5" points="254.06 367.75 218.29 367.75 218.29 343.68 198.17 343.68 198.17 367.75 162.4 367.75 162.4 381.29 198.17 381.29 198.17 405.36 218.29 405.36 218.29 381.29 254.06 381.29 254.06 367.75"/><path class="cls-3" d="M294.82,94.55c-9.49,0-18.88-.48-28.28.49a59.11,59.11,0,0,1-19.27-1.49,13.1,13.1,0,0,1-6.42-3.38c-1.91-1.76-4.4-3.74-1.5-6.12,6.35-5.23,13.82,5.33,19.89-1.11-.66-2.53-2.9-6.33-1.85-9.81.68-2.27,4.42-3.34,5.57-3.6,4.26-1,9.58-.77,13.45,2.89C281.11,76.85,285.82,76,291,76c2.31,0,12-2.41,13,4.48.63,4-1.82,2.23.3,5.9,1.53,2.63,4.32,2.15,6.11,2.13,1.15,0,4.36-.61,5.21,1.85,1.2,3.5-.63,5.5-1.94,6.17C310.43,98.23,297.65,94.55,294.82,94.55Z" transform="translate(1.06 0.36)"/><polygon class="cls-5" points="193.69 173.25 177.97 173.25 177.97 157.68 169.12 157.68 169.12 173.25 153.4 173.25 153.4 182.02 169.12 182.02 169.12 197.59 177.97 197.59 177.97 182.02 193.69 182.02 193.69 173.25"/><path class="cls-3" d="M36.79,219H0l-.35,40.58a5.72,5.72,0,0,1,0,1.17l0,5.51c0,.18,0,.37,0,.55H36.79a3.35,3.35,0,0,0,3.47-3.22V222.21A3.35,3.35,0,0,0,36.79,219Z" transform="translate(1.06 0.36)"/><path d="M-.94,246.64a5.92,5.92,0,0,1,.08,1.57,5.77,5.77,0,0,1-.2,2.15l.06,1.18A5.7,5.7,0,0,1-.74,254H5.94v-7.33Z" transform="translate(1.06 0.36)"/><path d="M19.18,254H10.75v-7.33h8.43Z" transform="translate(1.06 0.36)"/><polyline class="cls-5" points="1.53 439.49 12.58 450.46 18.81 444.18 7.76 433.21 18.84 422.06 12.62 415.88 1.54 427.04"/><path class="cls-3" d="M388.38.11A5.29,5.29,0,0,1,386.9-.1a5.38,5.38,0,0,1-1.5.21,5.27,5.27,0,0,1-1.47-.21,5.36,5.36,0,0,1-1.16.12,6.07,6.07,0,0,1-1.08-.11,5.8,5.8,0,0,1-1.14.11A5.73,5.73,0,0,1,379.7,0a5.73,5.73,0,0,1-.85.07,5.06,5.06,0,0,1-1.06-.12,5.27,5.27,0,0,1-1.15.12A4.49,4.49,0,0,1,376,0a3.43,3.43,0,0,1-.47,0,5.6,5.6,0,0,1-1.27-.15A5.69,5.69,0,0,1,373,0a5.54,5.54,0,0,1-1.18-.13,5.66,5.66,0,0,1-1.2.13,5.92,5.92,0,0,1-1-.09,5.21,5.21,0,0,1-1,.09,6.36,6.36,0,0,1-.77,0,6.33,6.33,0,0,1-.76.05A5.26,5.26,0,0,1,366-.12a5.32,5.32,0,0,1-1.23.14h-.51a5.17,5.17,0,0,1-1.07-.11A6,6,0,0,1,362,0a5.69,5.69,0,0,1-1.28-.15,5.73,5.73,0,0,1-.85.07,4.62,4.62,0,0,1-.65-.07,5,5,0,0,1-.79.07,6.29,6.29,0,0,1-.77-.07,5.73,5.73,0,0,1-.85.07c-.11,0-.21,0-.31,0a6,6,0,0,1-1.14.11,5.09,5.09,0,0,1-1.13-.12,5.46,5.46,0,0,1-1.17.12,4.92,4.92,0,0,1-.78-.07,5.46,5.46,0,0,1-.83.07,5,5,0,0,1-1.26-.16,5.32,5.32,0,0,1-1.3.16,5.14,5.14,0,0,1-1.82-.32c-5.72.08-11.44.14-17.16.15a5.51,5.51,0,0,1-1.51-.21v0C328.4,17.52,342.19,32,359.2,32S389.89,17.63,390-.13A5.46,5.46,0,0,1,388.38.11Z" transform="translate(1.06 0.36)"/><path class="cls-3" d="M753.39-.1h-.24c-8.41.17-16.81.08-25.21.07h-.13c-7.76.06-15.52,0-23.3.06a5,5,0,0,1-1.18-.11c-1.6.73-4.4.72-5,.92-1.33.41-6.45,0-6.5,4,3.69,2.47,7.24,2.82,11.1,2.83a1.71,1.71,0,0,0,.55-.09h0a17.83,17.83,0,0,1,6.94-.94c5,.37,10,1.71,15.1.63a12.66,12.66,0,0,1,6.44.54c4.71,1.48,9.07,0,13.58-.84,2.75-.53,6.1.26,8.67-2.49,1.77-1.89,2-3.44,1.57-4.63A4.25,4.25,0,0,1,753.39-.1Z" transform="translate(1.06 0.36)"/><polygon class="cls-5" points="839.6 32.91 827.91 43.42 817.5 31.84 810.92 37.75 821.33 49.33 809.63 59.84 815.49 66.36 827.18 55.85 837.59 67.43 844.17 61.52 833.76 49.94 845.46 39.43 839.6 32.91"/><path class="cls-7" d="M178.24,312.81s-6.27,18.89-9.35,22-13.16,7.64-13.16,7.64l2.67,3.95s18.31-7.79,21.49-14.17a42.55,42.55,0,0,0,3.7-9.78c.5-2.34,2.57-8.15,1.54-10.48C184.45,310.44,179.68,309.64,178.24,312.81Z" transform="translate(1.06 0.36)"/><path class="cls-8" d="M178.24,312.81s-6.27,18.89-9.35,22-13.16,7.64-13.16,7.64l2.67,3.95s18.31-7.79,21.49-14.17a42.55,42.55,0,0,0,3.7-9.78c.5-2.34,2.57-8.15,1.54-10.48C184.45,310.44,179.68,309.64,178.24,312.81Z" transform="translate(1.06 0.36)"/><path class="cls-6" d="M115.42,403l-4.62-3.61s-18.48-1.13-19.56.22,17.52,8.68,19.91,8.55S115.11,404.44,115.42,403Z" transform="translate(1.06 0.36)"/><path class="cls-9" d="M149.29,350.75s-17.47-3.71-18.91-1.31-19.58,49.91-19.58,49.91l4.62,3.61s19.45-40.1,25.09-44.29S151.89,352.4,149.29,350.75Z" transform="translate(1.06 0.36)"/><path class="cls-10" d="M149.29,350.75s-17.47-3.71-18.91-1.31-19.58,49.91-19.58,49.91l4.62,3.61s19.45-40.1,25.09-44.29S151.89,352.4,149.29,350.75Z" transform="translate(1.06 0.36)"/><path class="cls-9" d="M158.3,342a17.42,17.42,0,0,1-3.63-1.22,5.58,5.58,0,0,0-3.08-.73c-.84.1-7.55,2.44-5.76,3.48.58.34,2-.25,2.6-.43.83-.24,1.66-.58,2.45-.87-.72,0-4.35,1.25-4,2,.67,1.24,4.34-.42,5.2-.82-.65.08-2.93.8-2.92,1.49,0,1.09,2.7.18,3.29-.07a4,4,0,0,1,1.23-.5,6,6,0,0,1,1.64.24,11.47,11.47,0,0,0,2.87.05c.56-.05,1.86.05,2.14-.35a1.52,1.52,0,0,0-.36-1.7A4.64,4.64,0,0,0,158.3,342Z" transform="translate(1.06 0.36)"/><path class="cls-11" d="M158.3,342a17.42,17.42,0,0,1-3.63-1.22,5.58,5.58,0,0,0-3.08-.73c-.84.1-7.55,2.44-5.76,3.48.58.34,2-.25,2.6-.43.83-.24,1.66-.58,2.45-.87-.72,0-4.35,1.25-4,2,.67,1.24,4.34-.42,5.2-.82-.65.08-2.93.8-2.92,1.49,0,1.09,2.7.18,3.29-.07a4,4,0,0,1,1.23-.5,6,6,0,0,1,1.64.24,11.47,11.47,0,0,0,2.87.05c.56-.05,1.86.05,2.14-.35a1.52,1.52,0,0,0-.36-1.7A4.64,4.64,0,0,0,158.3,342Z" transform="translate(1.06 0.36)"/><polygon class="cls-6" points="129.09 317.14 124.98 318.55 139.1 347 143.26 345.12 129.09 317.14"/><rect class="cls-6" x="141.75" y="344.63" width="26.88" height="3.49"/><path class="cls-6" d="M215.1,328.05c-3.59-1.72-4.19-3.61-2.2-9.9s-3.22-12.79-8.23-14.52c-3.69-1.26-6.92-1.82-9.16-5.1s2-10.27-5.09-15.45c-5.16-3.77-12.58-.75-12.58-.75-1.59-.74-2.25,7-2.37,12.87,9,11.48,6.42,26.48,3.15,39.33a4.39,4.39,0,0,1-.33.86c.71,9.95,1.28,18.19,1.28,18.19s21.58,10.21,36.27,1.46S222.31,331.49,215.1,328.05Z" transform="translate(1.06 0.36)"/><path class="cls-6" d="M151.62,400.6l-5.48,2.63s-6.72,14.42-5.48,15.68,15.07-11.44,15.62-13.39S153.23,401.29,151.62,400.6Z" transform="translate(1.06 0.36)"/><path class="cls-9" d="M158.61,349.9s-35.22,2.06-38.51,4.69S146.71,403,146.71,403l4.91-2.36s-7.4-21.75-9.32-26.78-5.62-11.1-4.93-11.91,36.18,3.67,35.9-4.69S158.61,349.9,158.61,349.9Z" transform="translate(1.06 0.36)"/><path class="cls-9" d="M176,300.28s3.7,8.41,1.44,14.68l12.33-2.49s-5-14.08-7.2-16.48S176,300.28,176,300.28Z" transform="translate(1.06 0.36)"/><path class="cls-10" d="M176,300.28s3.7,8.41,1.44,14.68l12.33-2.49s-5-14.08-7.2-16.48S176,300.28,176,300.28Z" transform="translate(1.06 0.36)"/><path class="cls-9" d="M174.7,289.32s-4.79,1.91-5.93,3.52-.15,3.84-.24,5.32-.58,3.66-.32,4,2,0,2.32.32,2.58,1.51,3.29,2.87,1.67,1.47,3.34.79,8.06-7.72,8.13-11S179.45,288,174.7,289.32Z" transform="translate(1.06 0.36)"/><path class="cls-6" d="M178.76,284.83s-2.23,3.74-2.47,5.22,1.47,5.86,2.47,6.44.16-4.9,2.7-3.22-.15,4.82,0,5.47a4.45,4.45,0,0,0,3.93,2.9c2.62.19,6.94-10.69,4.09-13.4S181.77,284.83,178.76,284.83Z" transform="translate(1.06 0.36)"/><path class="cls-12" d="M193.56,340.85l-16.34-1s-8.5,7.93-16.9,7.93H131.61a38.87,38.87,0,0,0,8.36,17.9s27.38,1.68,40.67.76S206.57,353.26,193.56,340.85Z" transform="translate(1.06 0.36)"/><path class="cls-13" d="M195.08,342.46c-.47-.54-1-1.07-1.52-1.61l-16.34-1s-8.28,7.71-16.56,7.91C170.66,348.58,189.79,350.43,195.08,342.46Z" transform="translate(1.06 0.36)"/><path class="cls-14" d="M139.19,349.36c4.17-.34,8.21-1.17,12.3-1.61h-18C135.26,348.52,136.14,349.6,139.19,349.36Z" transform="translate(1.06 0.36)"/><path class="cls-7" d="M188.19,307.72s-7.5,2.46-10.05,2.69c0,0-5.28,9.73-7.33,12.36s5.21,12.71,5.62,17.05c0,0,4.36,3.49,17.6,1.34C194,341.16,197.48,313.84,188.19,307.72Z" transform="translate(1.06 0.36)"/><path class="cls-8" d="M190.19,313.53c-2.29-.88-6.28,0-7.4,1.94-1.38,2.38,0,6.6-.13,9.17a42.26,42.26,0,0,1-1.2,8.94,17.79,17.79,0,0,1-4.31,6.67c1.7.86,6.61,2.58,16.88.91,0,0,2.1-16.66-1.4-26.87C191.67,314,190.79,313.76,190.19,313.53Z" transform="translate(1.06 0.36)"/><path class="cls-9" d="M160.87,342a17.42,17.42,0,0,1-3.63-1.22,5.6,5.6,0,0,0-3.09-.73c-.83.1-7.54,2.44-5.75,3.48.58.34,2-.25,2.6-.43.83-.24,1.66-.58,2.45-.87-.72,0-4.35,1.25-4,2,.67,1.24,4.34-.42,5.2-.82-.65.08-2.93.8-2.93,1.49,0,1.09,2.71.18,3.3-.07a4,4,0,0,1,1.23-.5,6,6,0,0,1,1.64.24,11.47,11.47,0,0,0,2.87.05c.56-.05,1.86.05,2.14-.35a1.52,1.52,0,0,0-.36-1.7A4.64,4.64,0,0,0,160.87,342Z" transform="translate(1.06 0.36)"/><path class="cls-7" d="M159.74,341.86l1.44,4.52s35.36-3.44,36.18-8.67-1.44-29.61-10-27.08-.1,20.21-1.44,21.58S159.74,341.86,159.74,341.86Z" transform="translate(1.06 0.36)"/><path class="cls-6" d="M179.11,282.77a8.18,8.18,0,0,0-8.61.33c-4.39,3-4.24,7.4-7.86,7,0,0,2.39,5.15,7.63,3.92S180.94,285.87,179.11,282.77Z" transform="translate(1.06 0.36)"/><path class="cls-15" d="M644.72,207.54c-8.67,14.4-7.13,34-3.42,49.4,1.25,5.17,2.68,10.62,1.58,16.41-1.36,7.08-6.2,12.66-11.1,15.85-8.92,5.83-19.09,5.71-26.44-.31-6.37-5.19-10.54-14.29-17-19.2-10.89-8.23-25.88-3.15-38.92,4.65-9.23,5.51-19.39,12.49-27.87,8.6-6-2.74-9.67-10.51-11.38-19-.82-4.09-1.31-8.56-3.22-11.67a12.71,12.71,0,0,0-4.35-4.09c-14.87-9.22-35.09-1.37-49.43-11.82-9.68-7.05-15.15-21.68-16.89-37.35s-.2-32.44,1.72-49c1.38-11.74,3.23-24.31,9.24-33.88,6.36-10.13,16.34-14.68,25-13.77s16.14,6.54,22.59,13.43c8.06,8.61,15.31,19.62,25.78,22.36,7.12,1.87,14.93-.37,22.52-1.64,12.68-2.14,25.17-1.59,37.57-.87,11.87.7,23.82,1.58,34.87,5.85,7.82,3,13.8,9.35,21.09,13.45,4.76,2.68,10.13,3,14.55,6.57a22.81,22.81,0,0,1,7.92,22.89C657,194.28,649.32,199.89,644.72,207.54Z" transform="translate(1.06 0.36)"/><path class="cls-16" d="M482.84,163.52S445.42,155,493,105.3c0,0,20.52,19.76,13,44.32a19.85,19.85,0,0,1-22.63,14Z" transform="translate(1.06 0.36)"/><path class="cls-17" d="M482.84,163.52c-.82-.18-36.62-9.33,10.19-58.22,0,0,20.52,19.76,13,44.32a19.85,19.85,0,0,1-22.63,14Z" transform="translate(1.06 0.36)"/><path class="cls-18" d="M483.33,163.81s19.77-30.25,9.7-58.51" transform="translate(1.06 0.36)"/><path class="cls-19" d="M636.76,192.9s-6.45-26.38,3.32-45.17a41.69,41.69,0,0,0,4.37-25.66,70.1,70.1,0,0,0-3.09-12.28" transform="translate(1.06 0.36)"/><path class="cls-16" d="M647.45,97.92c-.13,3.19-6.21,12.2-6.21,12.2s-5.3-9.5-5.17-12.7a5.7,5.7,0,0,1,11.38.5Z" transform="translate(1.06 0.36)"/><path class="cls-16" d="M656.11,116c-1.82,2.61-11.74,6.81-11.74,6.81s.63-10.9,2.45-13.51a5.65,5.65,0,0,1,7.91-1.54,5.84,5.84,0,0,1,1.52,8,2.43,2.43,0,0,1-.14.2Z" transform="translate(1.06 0.36)"/><path class="cls-16" d="M654.43,146.21c-2.87,1.32-13.53-.14-13.53-.14s6-9.09,8.84-10.4a5.67,5.67,0,0,1,7.48,3A5.84,5.84,0,0,1,654.43,146.21Z" transform="translate(1.06 0.36)"/><path class="cls-16" d="M648.09,168.77c-2.61,1.79-13.36,2.18-13.36,2.18s4.37-10,7-11.77a5.64,5.64,0,0,1,7.88,1.7A5.85,5.85,0,0,1,648.09,168.77Z" transform="translate(1.06 0.36)"/><path class="cls-16" d="M632.39,122.93C634.55,125.26,645,128,645,128s-2.13-10.71-4.29-13a5.63,5.63,0,0,0-8-.08A5.84,5.84,0,0,0,632.39,122.93Z" transform="translate(1.06 0.36)"/><path class="cls-16" d="M625.31,149.4c2.75,1.55,13.48,1,13.48,1s-5.17-9.57-7.92-11.13a5.66,5.66,0,0,0-7.7,2.42A5.83,5.83,0,0,0,625.31,149.4Z" transform="translate(1.06 0.36)"/><path class="cls-16" d="M621.9,176.1c2.45,2,13.12,3.33,13.12,3.33s-3.52-10.34-6-12.34a5.65,5.65,0,0,0-8,1A5.85,5.85,0,0,0,621.9,176.1Z" transform="translate(1.06 0.36)"/><path class="cls-20" d="M647.45,97.92c-.13,3.19-6.21,12.2-6.21,12.2s-5.3-9.5-5.17-12.7a5.7,5.7,0,0,1,11.38.5Z" transform="translate(1.06 0.36)"/><path class="cls-20" d="M656.11,116c-1.82,2.61-11.74,6.81-11.74,6.81s.63-10.9,2.45-13.51a5.65,5.65,0,0,1,7.91-1.54,5.84,5.84,0,0,1,1.52,8,2.43,2.43,0,0,1-.14.2Z" transform="translate(1.06 0.36)"/><path class="cls-20" d="M654.43,146.21c-2.87,1.32-13.53-.14-13.53-.14s6-9.09,8.84-10.4a5.67,5.67,0,0,1,7.48,3A5.84,5.84,0,0,1,654.43,146.21Z" transform="translate(1.06 0.36)"/><path class="cls-20" d="M648.09,168.77c-2.61,1.79-13.36,2.18-13.36,2.18s4.37-10,7-11.77a5.64,5.64,0,0,1,7.88,1.7A5.85,5.85,0,0,1,648.09,168.77Z" transform="translate(1.06 0.36)"/><path class="cls-20" d="M632.39,122.93C634.55,125.26,645,128,645,128s-2.13-10.71-4.29-13a5.63,5.63,0,0,0-8-.08A5.84,5.84,0,0,0,632.39,122.93Z" transform="translate(1.06 0.36)"/><path class="cls-20" d="M625.31,149.4c2.75,1.55,13.48,1,13.48,1s-5.17-9.57-7.92-11.13a5.66,5.66,0,0,0-7.7,2.42A5.83,5.83,0,0,0,625.31,149.4Z" transform="translate(1.06 0.36)"/><path class="cls-20" d="M621.9,176.1c2.45,2,13.12,3.33,13.12,3.33s-3.52-10.34-6-12.34a5.65,5.65,0,0,0-8,1A5.85,5.85,0,0,0,621.9,176.1Z" transform="translate(1.06 0.36)"/><path class="cls-19" d="M613.15,175.86s27.05-23,33.06-34.64a165.9,165.9,0,0,1,13.67-21.62" transform="translate(1.06 0.36)"/><path class="cls-16" d="M656.34,145.56l-11.7-2.68S647.39,155.42,656.34,145.56Z" transform="translate(1.06 0.36)"/><path class="cls-16" d="M638.45,132.75,645.18,143S632,144,638.45,132.75Z" transform="translate(1.06 0.36)"/><path class="cls-16" d="M660.94,135.93,650.24,134S657,144.4,660.94,135.93Z" transform="translate(1.06 0.36)"/><path class="cls-16" d="M645.12,126.77l5.28,7S641.06,134.68,645.12,126.77Z" transform="translate(1.06 0.36)"/><path class="cls-16" d="M655.78,125.37s9.11.45,10.17,1.33-1.36,6.07-4.83,5.22S655.78,125.37,655.78,125.37Z" transform="translate(1.06 0.36)"/><path class="cls-16" d="M652.13,117.11s3.72,6.88,3.59,8.19-5.67,2.78-6.79-2.18S652.13,117.11,652.13,117.11Z" transform="translate(1.06 0.36)"/><ellipse class="cls-21" cx="662.97" cy="121.15" rx="2.54" ry="2.58"/><ellipse class="cls-21" cx="658.99" cy="118.52" rx="2.54" ry="2.58"/><path class="cls-16" d="M491.63,181.77s10.93-8.27-2.8-37.2c0,0-18.31-23,0-44.7,0,0-39.93,1-39.16,38.76s20,43.14,20,43.14Z" transform="translate(1.06 0.36)"/><path class="cls-19" d="M481.41,181.77s-2.75-19.89-10.13-32a26.42,26.42,0,0,1-3.1-7.94,32.87,32.87,0,0,1,9-30.41l11.63-11.51" transform="translate(1.06 0.36)"/><path class="cls-16" d="M514.4,115.36s2.51,3.34-1.16,8.38-6.7,9.3-5.48,12.43c0,0,5.54-9.36,10-9.49S519.36,121,514.4,115.36Z" transform="translate(1.06 0.36)"/><path class="cls-22" d="M514.4,115.36a4.44,4.44,0,0,1,.51,1c4.39,5.25,6.74,10.15,2.51,10.27-3.94.12-8.66,7.27-9.79,9.08a3.24,3.24,0,0,0,.13.41s5.54-9.36,10-9.49S519.36,121,514.4,115.36Z" transform="translate(1.06 0.36)"/><path class="cls-21" d="M519.07,119.61c0,1.18-.13,2.13-.29,2.13s-.29-.95-.29-2.13.16-.62.32-.62S519.07,118.44,519.07,119.61Z" transform="translate(1.06 0.36)"/><path class="cls-21" d="M520.67,121c-1,.56-1.9.9-2,.76s.69-.72,1.7-1.28.62-.15.69,0S521.68,120.45,520.67,121Z" transform="translate(1.06 0.36)"/><path class="cls-16" d="M501.13,115.36s-2.51,3.34,1.16,8.38,6.7,9.3,5.48,12.43c0,0-5.54-9.36-10-9.49S496.17,121,501.13,115.36Z" transform="translate(1.06 0.36)"/><path class="cls-22" d="M501.13,115.36a4.44,4.44,0,0,0-.51,1c-4.39,5.25-6.74,10.15-2.51,10.27,3.94.12,8.66,7.27,9.79,9.08a3.24,3.24,0,0,1-.13.41s-5.55-9.36-10-9.49S496.17,121,501.13,115.36Z" transform="translate(1.06 0.36)"/><path class="cls-21" d="M496.46,119.61c0,1.18.13,2.13.29,2.13s.29-.95.29-2.13-.16-.62-.32-.62S496.46,118.44,496.46,119.61Z" transform="translate(1.06 0.36)"/><path class="cls-21" d="M494.86,121c1,.56,1.9.9,2,.76s-.68-.72-1.7-1.28-.61-.15-.69,0S493.84,120.45,494.86,121Z" transform="translate(1.06 0.36)"/><path class="cls-23" d="M682.25,258.72,660,159.14h-8.28c-.33-3.81-.55-7.5-.63-11,0,0-30,6.67-53.94-12.63s-52.06,1.67-52.06,1.67l-.11-.08v0c-2-1.4-28.9-20.17-51.94-1.58-23.92,19.3-53.93,12.63-53.93,12.63-.09,3.51-.31,7.23-.65,11.07h-7.68L408,259.08s92.48,3.52,124.89.28c1.17,2.49,6.18,4.37,12.18,4.37,6.74,0,12.23-2.37,12.42-5.33C582.71,260.35,637,263.47,682.25,258.72Z" transform="translate(1.06 0.36)"/><path class="cls-24" d="M433.13,160l-22.27,97.74s122.61,4.67,132.48-1.86c0,0,76.12,7.81,136,1.51l-21.81-97.5Z" transform="translate(1.06 0.36)"/><path class="cls-22" d="M440.71,163.39,420,254.51s114.31,4.35,123.51-1.73c0,0,71,7.28,126.84,1.41L650,163.28Z" transform="translate(1.06 0.36)"/><path class="cls-25" d="M648.85,149.17S619.46,155.7,596,136.8s-51,1.63-51,1.63-27.56-20.52-51-1.63-52.81,12.37-52.81,12.37c-.92,38-18.36,99.6-18.36,99.6s32.14,8.87,74.62-9.09,47.53,6.3,47.53,6.3,5-24.27,47.53-6.3,74.62,9.09,74.62,9.09S649.77,187.19,648.85,149.17Z" transform="translate(1.06 0.36)"/><path class="cls-22" d="M488.36,246.68s38.8-8.86,56.7,4.2c0,0,17.22-15.86,57.17-3.5" transform="translate(1.06 0.36)"/><ellipse class="cls-26" cx="546.13" cy="257.3" rx="12.17" ry="5.37"/><path class="cls-22" d="M545,138.32s8.73,45,.23,108.47" transform="translate(1.06 0.36)"/><path class="cls-27" d="M449.69,163.28s18.28,4.31,34.1,0,44.86-18.43,54.41,0" transform="translate(1.06 0.36)"/><path class="cls-27" d="M449.69,171.21s18.28,4.31,34.1,0,50.07-4.08,54.41,0" transform="translate(1.06 0.36)"/><path class="cls-27" d="M449.69,185.19s18.28,4.32,34.1,0,44.86-18.42,54.41,0" transform="translate(1.06 0.36)"/><path class="cls-27" d="M449.69,193.14s18.28,4.31,34.1,0,50.07-4.09,54.41,0" transform="translate(1.06 0.36)"/><path class="cls-27" d="M640.44,163.28s-18.27,4.31-34.09,0-44.86-18.43-54.42,0" transform="translate(1.06 0.36)"/><path class="cls-27" d="M640.44,171.21s-18.27,4.31-34.09,0-50.07-4.08-54.42,0" transform="translate(1.06 0.36)"/><path class="cls-27" d="M640.44,185.19s-18.27,4.32-34.09,0-44.86-18.42-54.42,0" transform="translate(1.06 0.36)"/><path class="cls-27" d="M640.44,193.14s-18.27,4.31-34.09,0-50.07-4.09-54.42,0" transform="translate(1.06 0.36)"/><path class="cls-16" d="M640.82,277.11a4.44,4.44,0,0,0,1.71-2.14,1.81,1.81,0,0,0-1.2-2.17,3.75,3.75,0,0,0-3.15.92,4.61,4.61,0,0,1-3.07,1.22,3.48,3.48,0,0,0,1.44-3.61,1.35,1.35,0,0,0-.4-.74,2.24,2.24,0,0,0-2.44.12c-2.31,1.35-3,4-3,6.3a9.42,9.42,0,0,1,0-2.6,2.51,2.51,0,0,0-1.18-2.3,5.84,5.84,0,0,0-4.71.34,2.1,2.1,0,0,0,.12,3,11.13,11.13,0,0,0,3,2,6.18,6.18,0,0,1,2.15,1.7,1.3,1.3,0,0,1,.16.31h6.53A18.89,18.89,0,0,0,640.82,277.11Z" transform="translate(1.06 0.36)"/><path class="cls-28" d="M595.68,184.08s.07.37.17,1a3.07,3.07,0,0,1-.17.31c-2.08,3.57-2.4,8.7-2.21,12.92a43,43,0,0,0,1.75,10,47.78,47.78,0,0,1,1.78,13,9.25,9.25,0,0,0,2.92,2.16c.05.18.11.35.16.52A52,52,0,0,1,602,234l.66,8.44s5,19.1,6.56,22.65c1.08,2.53.85,7.75.62,10.55-.66,1.89-1.45,3.68-2.15,3.88-1.28.36-2.55,3.47-.7,5h0a3.58,3.58,0,0,0,.45.31l.07,0,.14.07.2.09.1,0,.21.07.09,0,.31.08a5.44,5.44,0,0,0,3.77-.61,7.54,7.54,0,0,0,3.56-1.73l0,1.34h1.52l-.07-2.69c.28-.31.43-.51.43-.51s.05-1.63.22-3.52l-.11,6.07h1.53l-.42-11.2a1.77,1.77,0,0,1,.31-.46c1.27-1.29-.93-5.46-2.07-6.15.51-2.74,2.45-6.7,4.69-14.28,3.28-11.11-.87-22-.87-22v-8.53c1.1-.48,1.74-.81,1.74-.81s-1.52-9.1,0-15.54a24.4,24.4,0,0,0,.42-11.39c1.1-3.85,2-6.82,2-6.82l1.53-16c.39-2.4.65-4.46.81-6.2q0-.33.06-.66a33.4,33.4,0,0,0,0-6.84,10.8,10.8,0,0,0,.09-2,6.77,6.77,0,0,0,0-1l.64-.78a11.24,11.24,0,0,0,1.37-2.22c1.68-3.22,1.73-7.16-.62-10-1.44-1.74-1.89-3.63-3.14-5.49s-1.36-3.75-1.64-5.71A71.3,71.3,0,0,0,623,122.4c-.18-.71-1.14-1.14-1.62-1.72-.92-1.13-3.62-1.09-5.17-1.34-2.61-.42-5.44-.82-7.81.22a16.19,16.19,0,0,0-4.13,3.22c-1.39,1.25-4.24,1.85-4.68,3.35a1.84,1.84,0,0,0,.25,2.26,11.09,11.09,0,0,0,2.61,2.28c.12.08.24.18.36.25a9.48,9.48,0,0,0,5.05,10l-.09.49a29.89,29.89,0,0,1-1.15,4.27c-.28.86-3.55,2.35-5.85,3.31a3.05,3.05,0,0,0-.93-.65c-1.75-.44-7.65,2.89-8.09,4a4.61,4.61,0,0,0,.72,2.25,8.78,8.78,0,0,0,.24,1.45,50.94,50.94,0,0,0,1.23,11.84Zm24.54,2.5c-.08-.16-.16-.32-.25-.48-2.43-5-3.87-13.06-.39-17.87q.46.06.93.09c.2,6.54.08,17.31.08,17.31s-.13.36-.37,1Zm-8.67,38c.5,2.52,1.08,5.45,1.62,8.11a21.67,21.67,0,0,1-.13,9.38l-2-6.26-.48-11,0-.45,1-.18Z" transform="translate(1.06 0.36)"/><path class="cls-29" d="M613.14,232.23a21.29,21.29,0,0,1-.13,9.23,11.06,11.06,0,0,1-.5,1.7l.58,24,.06,2.71a11.24,11.24,0,0,0,1.63.24,6.52,6.52,0,0,0,1.53,0,1.83,1.83,0,0,0,1.19-.51c.24-.3.29-.78,0-1.47a4.47,4.47,0,0,1-.41-2.47c0-.24.06-.49.1-.75.51-2.69,2.41-6.59,4.61-14.05,3.23-10.93-.85-21.63-.85-21.63V219.12L610.36,218s.5,2.71,1.2,6.23C612,226.73,612.61,229.61,613.14,232.23Z" transform="translate(1.06 0.36)"/><path class="cls-22" d="M613.14,232.23a21.29,21.29,0,0,1-.13,9.23,11.06,11.06,0,0,1-.5,1.7l.58,24,.06,2.71a11.24,11.24,0,0,0,1.63.24,6.52,6.52,0,0,0,1.53,0,1.83,1.83,0,0,0,1.19-.51c.24-.3.29-.78,0-1.47a4.47,4.47,0,0,1-.41-2.47c0-.24.06-.49.1-.75.51-2.69,2.41-6.59,4.61-14.05,3.23-10.93-.85-21.63-.85-21.63V219.12L610.36,218s.5,2.71,1.2,6.23C612,226.73,612.61,229.61,613.14,232.23Z" transform="translate(1.06 0.36)"/><path class="cls-29" d="M598.51,219.12a32.28,32.28,0,0,1,1.75,4.6,53.61,53.61,0,0,1,1.91,9.82l.64,8.3s5,18.8,6.46,22.3c1.07,2.48.83,7.63.61,10.39-.09,1.12-.18,1.85-.18,1.85l2.19-2.73,2.88-3.59,1.31-1.63.29-.36a13,13,0,0,1-.84-2.28h0a38.75,38.75,0,0,1-1.31-7.32c-.65-6.78-.86-16-.86-16l-.34-1-2-6.18-.47-10.85-.17-4Z" transform="translate(1.06 0.36)"/><path class="cls-30" d="M615.15,266.26a15.69,15.69,0,0,0-2.56,5.14c-.68,2.36-1.88,6-2.89,6.29-1.51.43-3,4.81.86,5.68s7.1-3.5,7.1-3.5.21-7.65,1.5-9-1.07-5.68-2.15-6.12C616.58,264.62,615.85,265.34,615.15,266.26Z" transform="translate(1.06 0.36)"/><path class="cls-22" d="M609.27,282.71a5.12,5.12,0,0,0,3-.27,6.86,6.86,0,0,0,4.22-5.9c.19-2.34.57-5.48,1.36-6.28,1-1-.26-4-1.35-5.39a.6.6,0,0,1,.49-.08c1.07.44,3.44,4.81,2.15,6.12s-1.51,9-1.51,9-3.22,4.37-7.09,3.5a3.49,3.49,0,0,1-1.54-.73Z" transform="translate(1.06 0.36)"/><path class="cls-30" d="M618.86,271.1l.41,11.29h-1.5l.2-11.29a.45.45,0,0,1,.45-.41h0A.44.44,0,0,1,618.86,271.1Z" transform="translate(1.06 0.36)"/><path class="cls-31" d="M618.86,271.1l.41,11.29h-1.5l.2-11.29a.45.45,0,0,1,.45-.41h0A.44.44,0,0,1,618.86,271.1Z" transform="translate(1.06 0.36)"/><path class="cls-30" d="M613.22,266.92a15.59,15.59,0,0,0-2.56,5.14c-.69,2.36-1.89,6-2.9,6.28-1.5.44-3,4.81.86,5.69s7.1-3.51,7.1-3.51.22-7.65,1.51-9-1.08-5.68-2.16-6.12C614.64,265.28,613.92,266,613.22,266.92Z" transform="translate(1.06 0.36)"/><path class="cls-22" d="M607.33,283.37a5.2,5.2,0,0,0,3-.28,6.85,6.85,0,0,0,4.23-5.9c.18-2.34.57-5.48,1.35-6.28,1-1-.25-4-1.34-5.39a.58.58,0,0,1,.48-.08c1.08.44,3.45,4.81,2.15,6.12s-1.5,9-1.5,9-3.23,4.38-7.1,3.5a3.58,3.58,0,0,1-1.54-.72Z" transform="translate(1.06 0.36)"/><path class="cls-30" d="M616.92,271.74l.41,11.29h-1.51l.21-11.28a.42.42,0,0,1,.44-.41h0A.42.42,0,0,1,616.92,271.74Z" transform="translate(1.06 0.36)"/><path class="cls-31" d="M616.92,271.74l.41,11.29h-1.51l.21-11.28a.42.42,0,0,1,.44-.41h0A.42.42,0,0,1,616.92,271.74Z" transform="translate(1.06 0.36)"/><path class="cls-29" d="M598.73,150.71l8.6,13.77,10.11,1.31s6.24-12.45,6-13.11-3.45-2-6.46-4.37.65-12.46.65-12.46l-9.9.87c0,.14.08.26.11.41a13.39,13.39,0,0,1,0,5.24,32,32,0,0,1-1.13,4.19C606.26,147.87,598.73,150.71,598.73,150.71Z" transform="translate(1.06 0.36)"/><path class="cls-22" d="M610.34,218s.51,2.71,1.21,6.23a49,49,0,0,0,9.34-3v-2.1Z" transform="translate(1.06 0.36)"/><path class="cls-22" d="M598.51,219.12a32.28,32.28,0,0,1,1.75,4.6c3,1.37,6.71,1.33,10.26.72l-.18-4Z" transform="translate(1.06 0.36)"/><path class="cls-32" d="M595.93,185.68c-2,3.51-2.37,8.56-2.17,12.72a41.84,41.84,0,0,0,1.71,9.87,46.59,46.59,0,0,1,1.76,12.81c7.31,8.09,25.38-1.09,25.38-1.09s-1.5-9,0-15.3c1-4.41,1.27-8.29.21-12a19.27,19.27,0,0,0-2.14-4.82,15.27,15.27,0,0,1-.83-1.51c-2.49-5.12-3.93-13.53.07-18.17a8.12,8.12,0,0,1,1.4-1.29,14.56,14.56,0,0,0,5.76-7.85,10.56,10.56,0,0,0,.25-4.61c-.43-2.41-6.45-4.59-6.45-4.59.22,7.21-8.82,13.33-8.82,13.33s-10.33-13.55-12-14-7.53,2.84-8,3.94,4.73,9.17,4.73,9.17S600,178.68,595.93,185.68Z" transform="translate(1.06 0.36)"/><path class="cls-22" d="M621.31,166.88a14.54,14.54,0,0,0,5.76-7.84c-.17-3.61-1-4.18-1-4.18s-7.1,7-6.46,9.41a24.9,24.9,0,0,1,.33,3.92A8.21,8.21,0,0,1,621.31,166.88Z" transform="translate(1.06 0.36)"/><path class="cls-22" d="M609.27,216.71c1.5,4.59,9-3.5,9.25-7,.14-2.24,2.56-11,4.29-17a19,19,0,0,0-2.14-4.81,16.47,16.47,0,0,1-.83-1.52c-.82,2-4.09,10.4-3.9,12.88.21,2.84-1.3,7-1.3,7S607.76,212.12,609.27,216.71Z" transform="translate(1.06 0.36)"/><path class="cls-29" d="M626.48,154.86s2.36,1.53,0,16.17L625,186.77s-5.81,19.45-6,22.95-7.75,11.58-9.25,7,5.37-10.49,5.37-10.49,1.51-4.15,1.3-7,4.08-13.33,4.08-13.33.22-19.23-.43-21.64S626.48,154.86,626.48,154.86Z" transform="translate(1.06 0.36)"/><path class="cls-22" d="M594.64,153.11s-2.8.66,0,15.3l1.72,16s3.87,22.95,3.66,25.57,8.39,9.4,9,5.69-4.3-9.84-4.3-9.84S602.59,201,602.59,192l-.43-7.21-3-26Z" transform="translate(1.06 0.36)"/><path class="cls-29" d="M594.2,153.11s-2.79.66,0,15.3l1.72,16s3.88,22.95,3.66,25.57,8.39,9.4,9,5.69-4.31-9.84-4.31-9.84S602.16,201,602.16,192l-.43-7.21-3-26Z" transform="translate(1.06 0.36)"/><path class="cls-22" d="M592.81,153.88s-1.29,7,7.74,9.4-1.07-8.31-1.07-8.31S596,149.73,592.81,153.88Z" transform="translate(1.06 0.36)"/><path class="cls-32" d="M593,153.66s-1.29,7,7.74,9.4-1.07-8.31-1.07-8.31S596.25,149.51,593,153.66Z" transform="translate(1.06 0.36)"/><path class="cls-22" d="M627.45,153.88s1.29,7-7.75,9.4,1.08-8.31,1.08-8.31S624.21,149.73,627.45,153.88Z" transform="translate(1.06 0.36)"/><path class="cls-32" d="M627.23,153.66s1.3,7-7.74,9.4,1.07-8.31,1.07-8.31S624,149.51,627.23,153.66Z" transform="translate(1.06 0.36)"/><path class="cls-22" d="M607.82,142.37c1.19.35,2.52-2.48,3.92-2.48s2.89,3,4.13,2.39a38.64,38.64,0,0,1,1.57-6l-9.57.86A13.34,13.34,0,0,1,607.82,142.37Z" transform="translate(1.06 0.36)"/><ellipse class="cls-29" cx="613.02" cy="133.92" rx="9.14" ry="9.29"/><path class="cls-22" d="M600,129.54a11.2,11.2,0,0,0,2.57,2.25,27.74,27.74,0,0,1,3.26,2.77,9.82,9.82,0,0,1,1.82,2.29,10.47,10.47,0,0,1,.91,4.45l.89,15.63a10.06,10.06,0,0,1-.14,3.1,11.26,11.26,0,0,1-1.1,2.45,21.61,21.61,0,0,1-4.27,6c-.63.55-1.4,1.27-1.06,2,.27.58,1.1.77,1.81.86,3,.41,6.3.75,8.81-.73a15.73,15.73,0,0,1,2.8-1.7c1.48-.48,3.11,0,4.69,0a14.49,14.49,0,0,0,4.83-1.13,1.65,1.65,0,0,0,.79-.45,1.37,1.37,0,0,0,.23-.62,8,8,0,0,0,.07-3.82c-.42-1.35-1.52-2.52-1.65-3.91-.16-1.93,1.59-3.5,2.85-5.09,2.69-3.38,3.29-8.25.53-11.59-1.42-1.72-1.87-3.57-3.09-5.4s-1.34-3.69-1.61-5.63a71.77,71.77,0,0,0-1.38-7.13c-.17-.7-1.12-1.12-1.59-1.7-.91-1.11-3.56-1.07-5.08-1.32-2.57-.41-5.34-.8-7.69.23a15.68,15.68,0,0,0-4.07,3.16C602.34,126.11,598,126.62,600,129.54Z" transform="translate(1.06 0.36)"/><path class="cls-33" d="M600.23,129.11a10.55,10.55,0,0,0,2.57,2.24,28.67,28.67,0,0,1,3.26,2.78,9.62,9.62,0,0,1,1.82,2.29,10.62,10.62,0,0,1,.91,4.45l.89,15.63a10.07,10.07,0,0,1-.14,3.1,10.57,10.57,0,0,1-1.1,2.45,21.68,21.68,0,0,1-4.26,5.94c-.63.55-1.4,1.27-1.07,2s1.1.78,1.81.86c3,.41,6.3.76,8.81-.72a15.21,15.21,0,0,1,2.8-1.71c1.48-.48,3.11,0,4.69,0a14.47,14.47,0,0,0,4.83-1.12,1.79,1.79,0,0,0,.8-.46,1.32,1.32,0,0,0,.22-.62,8,8,0,0,0,.08-3.82c-.42-1.35-1.53-2.51-1.65-3.9-.17-1.93,1.59-3.51,2.85-5.1,2.68-3.38,3.28-8.25.52-11.58-1.42-1.72-1.86-3.58-3.09-5.41a13,13,0,0,1-1.61-5.62,66.63,66.63,0,0,0-1.38-7.14c-.17-.69-1.11-1.12-1.58-1.69-.91-1.11-3.56-1.07-5.09-1.32-2.57-.42-5.34-.8-7.69.22a16.48,16.48,0,0,0-4.07,3.16C602.54,125.67,598.19,126.19,600.23,129.11Z" transform="translate(1.06 0.36)"/><path class="cls-3" d="M1048.91,449a5.24,5.24,0,0,1,.21-1.48,5.49,5.49,0,0,1-.21-1.5,5.16,5.16,0,0,1,.21-1.47,5.44,5.44,0,0,1-.13-1.17,5.15,5.15,0,0,1,.12-1.07,5.24,5.24,0,0,1-.12-1.14,5.87,5.87,0,0,1,.07-.86,5.73,5.73,0,0,1-.07-.85,5.13,5.13,0,0,1,.12-1.06,5.88,5.88,0,0,1-.12-1.15,6.26,6.26,0,0,1,0-.63c0-.16,0-.31,0-.47a5.07,5.07,0,0,1,.16-1.27,5.3,5.3,0,0,1-.16-1.29,5.53,5.53,0,0,1,.14-1.18,5.06,5.06,0,0,1-.14-1.2,4.87,4.87,0,0,1,.1-1,5.38,5.38,0,0,1-.1-1,6.32,6.32,0,0,1,.06-.77,6,6,0,0,1-.06-.76,5.12,5.12,0,0,0,0-2.38,2.83,2.83,0,0,1,0-.3c0-.07,0-.14,0-.21a5.25,5.25,0,0,1,.12-1.08,5.33,5.33,0,0,1,0-2.42,5.71,5.71,0,0,1-.07-.84,4.48,4.48,0,0,1,.06-.65,5.19,5.19,0,0,1-.06-.8,4.56,4.56,0,0,1,.07-.76,6,6,0,0,1-.07-.86c0-.11,0-.2,0-.31A5.09,5.09,0,0,1,1049,416a5.78,5.78,0,0,1,.12-1.14,6.07,6.07,0,0,1-.12-1.16,4.71,4.71,0,0,1,.07-.78,5.71,5.71,0,0,1-.07-.84,5.4,5.4,0,0,1,.16-1.25,5.32,5.32,0,0,1-.16-1.3,5.19,5.19,0,0,1,.32-1.83c-.07-5.72-.14-11.43-.15-17.15a5.16,5.16,0,0,1,.22-1.52h0c-17.86,0-32.34,13.79-32.34,30.8s14.37,30.7,32.14,30.8A5.09,5.09,0,0,1,1048.91,449Z" transform="translate(1.06 0.36)"/></g></g></svg>