<svg xmlns="http://www.w3.org/2000/svg" xmlns:xlink="http://www.w3.org/1999/xlink" viewBox="0 0 1050.23 450.22"><defs><style>.cls-1,.cls-19{isolation:isolate;}.cls-2{fill:url(#linear-gradient);}.cls-3{fill:#9881b7;opacity:0.55;}.cls-10,.cls-3{mix-blend-mode:multiply;}.cls-4{fill:#fff;}.cls-5{fill:#292c3d;}.cls-6{fill:#fff9fd;}.cls-7{fill:#da395b;}.cls-8{fill:#0254e4;}.cls-9{fill:#ff4c6b;}.cls-10{fill:#00a1cc;opacity:0.65;}.cls-11{fill:#f8f2ed;}.cls-12{fill:#48525b;}.cls-13{fill:#b6b6b6;}.cls-14{fill:#afeaf0;}.cls-15{fill:#5ac4e0;}.cls-16{fill:#8494ab;}.cls-17{fill:#b3b2da;}.cls-18{fill:#3f3d56;}.cls-19{opacity:0.1;}.cls-20{fill:#6c63ff;}.cls-21{fill:#575a89;}.cls-22{fill:#a0616a;}.cls-23{fill:#2f2e41;}.cls-24{fill:#f2f2f2;}</style><linearGradient id="linear-gradient" x1="525" y1="-272.84" x2="525" y2="262.73" gradientUnits="userSpaceOnUse"><stop offset="0" stop-color="#00c9ff"/><stop offset="0.27" stop-color="#00caf0"/><stop offset="0.78" stop-color="#00cbca"/><stop offset="1" stop-color="#00ccb8"/></linearGradient></defs><title>bnr2</title><g class="cls-1"><g id="Layer_1" data-name="Layer 1"><rect class="cls-2" y="0.04" width="1050" height="450"/><ellipse class="cls-3" cx="525.6" cy="273.89" rx="493.4" ry="26.15"/><path class="cls-4" d="M1050,140.73c.09-5.86.09-11.72.09-17.58a5.85,5.85,0,0,1,.11-1.06c-.25-.21-.5-.43-.76-.67-3.87-3.66-9.19-3.85-13.45-2.89-1.15.26-4.89,1.33-5.57,3.6-1.05,3.48,1.19,7.28,1.85,9.81-6.07,6.44-13.54-4.12-19.89,1.11-2.9,2.38-.41,4.36,1.5,6.12a13.1,13.1,0,0,0,6.42,3.38,59.11,59.11,0,0,0,19.27,1.49c3.56-.37,7.13-.53,10.69-.59A11.22,11.22,0,0,1,1050,140.73Z" transform="translate(0 0.04)"/><rect class="cls-4" x="963.39" y="30.55" width="24.5" height="2.15"/><rect class="cls-4" x="1012.38" y="30.55" width="24.5" height="2.15"/><path class="cls-4" d="M964,35.63c-6.35,0-11.51-1.82-11.51-4.05s5.16-4,11.51-4,11.52,1.81,11.52,4S970.4,35.63,964,35.63Z" transform="translate(0 0.04)"/><path class="cls-4" d="M964,36.16c7.2,0,13.05-2,13.05-4.58S971.24,27,964,27s-13,2.06-13,4.58,5.85,4.58,13,4.58Zm0-8.08c5.51,0,10,1.57,10,3.5s-4.48,3.51-10,3.51-10-1.57-10-3.51,4.48-3.5,10-3.5Z" transform="translate(0 0.04)"/><path class="cls-4" d="M529.25,42.47V93.89h16.63v14.72H519V42.47Z" transform="translate(0 0.04)"/><path class="cls-4" d="M581.49,42.47V56.25H560.77V68.61h18.71V82.29l-18.71.09V94.84h21.28v13.77H550.53V42.47Z" transform="translate(0 0.04)"/><path class="cls-4" d="M614.48,96.91h-17l-2.75,11.7H584.24l16.85-66.14h10.53l16.46,66.14H617.16Zm-3-13.21-5.37-23.58L600.59,83.7Z" transform="translate(0 0.04)"/><path class="cls-4" d="M655.18,108.61l-5.71-18.3h-7.61v18.3H631.61V42.47h17.64c10.42,0,16.35,8.49,16.35,23.21,0,10-2.46,17.36-7,21.33l8.18,21.6ZM641.86,76.53h7.44c4.15,0,6.56-3.58,6.56-10.28,0-6.51-2.41-10-6.56-10h-7.44Z" transform="translate(0 0.04)"/><path class="cls-4" d="M681.17,42.47,699,82.29V42.47h9.52v66.14h-9L681.73,69v39.63h-9.58V42.47Z" transform="translate(0 0.04)"/><path class="cls-4" d="M726.41,42.47v66.14H716.17V42.47Z" transform="translate(0 0.04)"/><path class="cls-4" d="M743,42.47l17.81,39.82V42.47h9.52v66.14h-9L743.6,69v39.63H734V42.47Z" transform="translate(0 0.04)"/><path class="cls-4" d="M804,74.83h8.85v26.05c-4.2,4.9-10.86,8.49-16.35,8.49-12,0-21-14.53-21-33.78S784.76,42,797.19,42c5.88,0,12.1,3.77,16.13,9.81L807.5,63.89c-2.8-4.44-6.78-7.27-10.36-7.27-6.33,0-11.09,8.21-11.09,19s4.81,19.06,11.2,19.06c2,0,4.42-1.13,6.77-3.11Z" transform="translate(0 0.04)"/><path class="cls-4" d="M170.85,224.25H166v-9.38h4.88Zm0-18.76H166v-9.38h4.88Zm0-18.76H166v-9.38h4.88Zm0-18.76H166v-9.38h4.88Zm0-18.77H166v-9.38h4.88Zm0-18.76H166v-9.38h4.88Zm0-18.76H166V102.3h4.88Zm0-18.76H166V83.54h4.88Zm0-18.77H166V64.77h4.88Zm0-18.76H166V46h4.88Zm0-18.76H166V27.25h4.88Zm215-16.46H366.25V17.82H385.8Zm-39.09,0H327.16V17.82h19.55Zm-39.1,0H288.06V17.82h19.55Zm-39.1,0H249V17.82h19.55Zm-39.1,0H209.86V17.82h19.55Zm-39.1,0H170.76V17.82h19.55Z" transform="translate(0 0.04)"/><ellipse class="cls-4" cx="168.41" cy="224.05" rx="9.19" ry="4.41"/><path class="cls-4" d="M178.82,224c0-2.75-4.67-5-10.41-5S158,221.25,158,224s4.67,5,10.41,5,10.41-2.24,10.41-5Zm-18.38,0c0-2.1,3.58-3.82,8-3.82s8,1.72,8,3.82-3.58,3.83-8,3.83-8-1.72-8-3.83Z" transform="translate(0 0.04)"/><path class="cls-4" d="M402.59,23.4c5.07,0,9.19-2,9.19-4.4s-4.12-4.41-9.19-4.41-9.19,2-9.19,4.41S397.52,23.4,402.59,23.4Z" transform="translate(0 0.04)"/><path class="cls-4" d="M402.59,24c-5.74,0-10.41-2.24-10.41-5s4.67-5,10.41-5S413,16.24,413,19s-4.67,5-10.41,5Zm0-8.82c-4.39,0-8,1.72-8,3.83s3.57,3.82,8,3.82,8-1.72,8-3.82-3.58-3.83-8-3.83Z" transform="translate(0 0.04)"/><path class="cls-4" d="M237.24,396.82h-6.41v-3h6.41Zm-21.75,0H200.15v-3h15.34Zm-30.68,0H169.47v-3h15.34Zm-30.68,0H138.78v-3h15.35Zm-18.63-9.55h-3.84V375.11h3.84Zm0-24.32h-3.84V350.79h3.84Zm0-24.32h-3.84V326.47h3.84Zm0-24.32h-3.84V302.15h3.84Z" transform="translate(0 0.04)"/><path class="cls-4" d="M126.37,302.47c0-3.15,3.23-5.71,7.21-5.71s7.21,2.56,7.21,5.71-3.23,5.72-7.21,5.72S126.37,305.63,126.37,302.47Z" transform="translate(0 0.04)"/><path class="cls-4" d="M125.41,302.47c0,3.57,3.67,6.48,8.17,6.48s8.17-2.91,8.17-6.48-3.67-6.47-8.17-6.47-8.17,2.9-8.17,6.47Zm14.42,0c0,2.74-2.8,5-6.25,5s-6.25-2.22-6.25-5,2.8-5,6.25-5,6.25,2.22,6.25,5Z" transform="translate(0 0.04)"/><path class="cls-4" d="M236.83,401c4,0,7.21-2.56,7.21-5.71s-3.23-5.72-7.21-5.72-7.21,2.56-7.21,5.72S232.85,401,236.83,401Z" transform="translate(0 0.04)"/><path class="cls-4" d="M236.83,401.78c-4.5,0-8.17-2.9-8.17-6.47s3.67-6.48,8.17-6.48,8.17,2.91,8.17,6.48-3.67,6.47-8.17,6.47Zm0-11.43c-3.45,0-6.25,2.22-6.25,5s2.8,4.95,6.25,4.95,6.25-2.22,6.25-4.95-2.8-5-6.25-5Z" transform="translate(0 0.04)"/><path class="cls-4" d="M919.88,424.27h-9.83v-4.41h6.07v-6.1h3.76Zm-24.85,0H880v-4.41h15Zm-30,0H850v-4.41h15Zm-30,0h-15v-4.41h15Zm-30.05,0h-15v-4.41h15Zm-30,0h-15v-4.41h15Zm-30.05,0h-15v-4.41h15Zm175.08-28.15h-3.76V378.48h3.76Zm0-35.28h-3.76V343.2h3.76Zm0-35.28h-3.76V307.92h3.76Z" transform="translate(0 0.04)"/><path class="cls-4" d="M696,430.36c-3.9,0-7.06-3.71-7.06-8.29s3.16-8.29,7.06-8.29,7.06,3.71,7.06,8.29S699.9,430.36,696,430.36Z" transform="translate(0 0.04)"/><path class="cls-4" d="M696,431.46c4.41,0,8-4.21,8-9.39s-3.59-9.39-8-9.39-8,4.21-8,9.39,3.59,9.39,8,9.39Zm0-16.58c3.38,0,6.12,3.23,6.12,7.19s-2.74,7.19-6.12,7.19-6.12-3.23-6.12-7.19,2.74-7.19,6.12-7.19Z" transform="translate(0 0.04)"/><path class="cls-4" d="M925.06,305.05c0-4.58-3.16-8.29-7.06-8.29s-7.06,3.71-7.06,8.29,3.16,8.29,7.06,8.29S925.06,309.62,925.06,305.05Z" transform="translate(0 0.04)"/><path class="cls-4" d="M926,305.05c0,5.17-3.59,9.39-8,9.39s-8-4.22-8-9.39,3.59-9.4,8-9.4,8,4.22,8,9.4Zm-14.12,0c0,4,2.74,7.18,6.12,7.18s6.12-3.22,6.12-7.18-2.74-7.19-6.12-7.19-6.12,3.22-6.12,7.19Z" transform="translate(0 0.04)"/><path class="cls-4" d="M324.42,332.64V352.1H310.68V423h-12V352.1H285.09V332.64Z" transform="translate(0 0.04)"/><path class="cls-4" d="M365.45,332.64v18.82H341.24v16.87H363.1V387l-21.86.13v17h24.87V423H329.27V332.64Z" transform="translate(0 0.04)"/><path class="cls-4" d="M404,407H384.18L381,423h-12.3l19.7-90.33h12.3L419.9,423H407.14Zm-3.53-18-6.28-32.21L387.78,389Z" transform="translate(0 0.04)"/><path class="cls-4" d="M444.58,352c-7.06,0-12.43,10.95-12.43,25.39S437.52,403,444.58,403c3.8,0,8.18-4.13,11.39-10.57l7,14.82c-4.91,10.18-12.24,16.75-19,16.75-13.81,0-24.08-19.84-24.08-46.39,0-26,10.53-45.61,24.54-45.61,6.8,0,13.93,5.93,18.51,15.46L456,363.82C453,356.61,448.57,352,444.58,352Z" transform="translate(0 0.04)"/><path class="cls-4" d="M480.05,332.64V369.5h18.52V332.64h12V423h-12V388.31H480.05V423h-12V332.64Z" transform="translate(0 0.04)"/><path class="cls-4" d="M531.43,332.64V423h-12V332.64Z" transform="translate(0 0.04)"/><path class="cls-4" d="M550.87,332.64,571.68,387V332.64H582.8V423H572.33l-20.81-54.12V423H540.33V332.64Z" transform="translate(0 0.04)"/><path class="cls-4" d="M622.14,376.84h10.34V412.4c-4.91,6.7-12.7,11.6-19.11,11.6-14,0-24.54-19.84-24.54-46.13S599.63,332,614.15,332c6.87,0,14.14,5.15,18.85,13.4l-6.81,16.49c-3.27-6.05-7.91-9.92-12.1-9.92-7.39,0-13,11.21-13,25.9s5.63,26,13.09,26c2.29,0,5.17-1.55,7.92-4.25Z" transform="translate(0 0.04)"/><path class="cls-4" d="M738.82,25.55c-9.49,0-18.88-.48-28.28.49a59.11,59.11,0,0,1-19.27-1.49,13.1,13.1,0,0,1-6.42-3.38c-1.91-1.76-4.4-3.74-1.5-6.12,6.35-5.23,13.82,5.33,19.89-1.11-.66-2.53-2.9-6.33-1.85-9.81.68-2.27,4.42-3.34,5.57-3.6,4.26-1,9.58-.77,13.45,2.89C725.11,7.85,729.82,7,735,7c2.31,0,12-2.41,13,4.48.63,4-1.82,2.23.3,5.9,1.53,2.63,4.32,2.15,6.11,2.13,1.15,0,4.36-.61,5.21,1.85,1.2,3.5-.63,5.5-1.94,6.17C754.43,29.23,741.65,25.55,738.82,25.55Z" transform="translate(0 0.04)"/><path class="cls-4" d="M88.82,120.55c-9.49,0-18.88-.48-28.28.49a59.11,59.11,0,0,1-19.27-1.49,13.1,13.1,0,0,1-6.42-3.38c-1.91-1.76-4.4-3.74-1.5-6.12,6.35-5.23,13.82,5.33,19.89-1.11-.66-2.53-2.9-6.33-1.85-9.81.68-2.27,4.42-3.34,5.57-3.6,4.26-1,9.58-.77,13.45,2.89C75.11,102.85,79.82,102,85,102c2.31,0,12-2.41,13,4.48.63,4-1.82,2.23.3,5.9,1.53,2.63,4.32,2.15,6.11,2.13,1.15,0,4.36-.61,5.21,1.85,1.2,3.5-.63,5.5-1.94,6.17C104.43,124.23,91.65,120.55,88.82,120.55Z" transform="translate(0 0.04)"/><path class="cls-4" d="M896.43,72.67c5,.37,10,1.71,15.1.63a12.66,12.66,0,0,1,6.44.54c4.71,1.48,9.07,0,13.58-.84,2.75-.53,6.1.26,8.67-2.49,5.09-5.46-2.13-8-4.4-7.53-4,.84-7.49.34-11-3.48-1.82-2-3.67-2-5.66-2.42-1.62-.32-4.34-2-5.87-.39-.67.7-1,2.31-1.83,3.06-1.21,1-2.75,1-4,1.12-2.4.29-4.54-1.36-6.88-1.81-1.59-.29-13.33-4-13.95,0-.44,2.93,4.23,2.68,3.87,5.59-.26,2-5.29,1.88-6.17,2.15-1.33.41-6.45,0-6.5,4,3.69,2.47,7.24,2.82,11.1,2.83a1.71,1.71,0,0,0,.55-.09h0A17.83,17.83,0,0,1,896.43,72.67Z" transform="translate(0 0.04)"/><path class="cls-4" d="M115.82,3c-3.83.81-7.19.37-10.55-3C100.87.61,96,0,91.62,0l-.53,0a7.9,7.9,0,0,1-3.66.85,7.32,7.32,0,0,1-3.64-.7C78.08.23,72.36.06,66.65.05c.57,2,4.14,2.09,3.82,4.65-.26,2-5.29,1.88-6.17,2.15-1.33.41-6.45,0-6.5,4,3.69,2.47,7.24,2.82,11.1,2.83a1.71,1.71,0,0,0,.55-.09h0a17.83,17.83,0,0,1,6.94-.94c5,.37,10,1.71,15.1.63a12.66,12.66,0,0,1,6.44.54c4.71,1.48,9.07,0,13.58-.84,2.75-.53,6.1.26,8.67-2.49C125.31,5.05,118.09,2.49,115.82,3Z" transform="translate(0 0.04)"/><path class="cls-4" d="M307.43,69.67c5,.37,10,1.71,15.1.63a12.66,12.66,0,0,1,6.44.54c4.71,1.48,9.07,0,13.58-.84,2.75-.53,6.1.26,8.67-2.49,5.09-5.46-2.13-8-4.4-7.53-4,.84-7.49.34-11-3.48-1.82-2-3.67-2-5.66-2.42-1.62-.32-4.34-2-5.87-.39-.67.7-1,2.31-1.83,3.06-1.21,1-2.75,1-4,1.12-2.4.29-4.54-1.36-6.88-1.81-1.59-.29-13.33-4-13.95,0-.44,2.93,4.23,2.68,3.87,5.59-.26,2-5.29,1.88-6.17,2.15-1.33.41-6.45,0-6.5,4,3.69,2.47,7.24,2.82,11.1,2.83a1.71,1.71,0,0,0,.55-.09h0A17.83,17.83,0,0,1,307.43,69.67Z" transform="translate(0 0.04)"/><ellipse class="cls-4" cx="887.2" cy="134.71" rx="30.8" ry="32.33"/><path class="cls-4" d="M866.1,378.28H815.5L788.37,397l12.2-18.72H788.14c-2.16,0-3.9-1.47-3.9-3.29V332.55c0-1.82,1.74-3.29,3.9-3.29h78c2.15,0,3.9,1.47,3.9,3.29V375C870,376.81,868.25,378.28,866.1,378.28Z" transform="translate(0 0.04)"/><path d="M816.53,365.12h-9.47v-7.51h9.47Z" transform="translate(0 0.04)"/><path d="M831.41,365.12h-9.47v-7.51h9.47Z" transform="translate(0 0.04)"/><path d="M846.29,365.12h-9.47v-7.51h9.47Z" transform="translate(0 0.04)"/><path class="cls-4" d="M642.84,193.92H629.05L641,215,615,193.92H569.66c-2,0-3.66-1.35-3.66-3V152c0-1.67,1.64-3,3.66-3h73.18c2,0,3.66,1.35,3.66,3V190.9C646.5,192.57,644.86,193.92,642.84,193.92Z" transform="translate(0 0.04)"/><path class="cls-5" d="M617.22,165.65c0,5.19-7.91,6.71-7.91,8.73v.81h-7.9v-1.91c0-2.79,6-4.39,6-7.48a2.76,2.76,0,0,0-3-2.67c-2.5,0-3,1.6-3,3.21a7.18,7.18,0,0,0,0,1H592.9a14.5,14.5,0,0,1-.14-1.45c0-5,5.36-8,12.62-8C612.46,157.87,617.22,160.92,617.22,165.65ZM610,184.57h-9.16v-7.06H610Z" transform="translate(0 0.04)"/><polygon class="cls-6" points="1032.63 385.93 1016.91 385.93 1016.91 370.36 1008.06 370.36 1008.06 385.93 992.34 385.93 992.34 394.7 1008.06 394.7 1008.06 410.27 1016.91 410.27 1016.91 394.7 1032.63 394.7 1032.63 385.93"/><polygon class="cls-6" points="475.63 31.93 459.91 31.93 459.91 16.36 451.06 16.36 451.06 31.93 435.34 31.93 435.34 40.7 451.06 40.7 451.06 56.27 459.91 56.27 459.91 40.7 475.63 40.7 475.63 31.93"/><polygon class="cls-6" points="69.54 208.59 57.85 219.1 47.44 207.51 40.86 213.43 51.27 225.01 39.57 235.52 45.43 242.04 57.12 231.53 67.53 243.11 74.11 237.2 63.7 225.62 75.4 215.11 69.54 208.59"/><polygon class="cls-6" points="825.54 175.59 813.85 186.1 803.44 174.51 796.86 180.43 807.27 192.01 795.57 202.52 801.43 209.04 813.12 198.53 823.53 210.11 830.11 204.2 819.71 192.62 831.4 182.11 825.54 175.59"/><polygon class="cls-7" points="664.32 220.57 664.32 223.69 705.34 223.69 705.34 231.84 664.32 231.84 664.32 234.96 751.78 234.96 751.78 220.57 664.32 220.57"/><path class="cls-8" d="M762.36,237.09H765v-2.16h-92v10h92v-2.16h-2.66c-.87-.07-1.57-1.3-1.57-2.81S761.49,237.16,762.36,237.09Z" transform="translate(0 0.04)"/><rect class="cls-9" x="712.14" y="220.57" width="39.64" height="14.39"/><rect class="cls-10" x="673.06" y="234.96" width="50.75" height="9.95"/><path class="cls-11" d="M664.32,223.65h0c1.27.1,2.27,1.88,2.27,4.06s-1,4-2.27,4.07H708.4v-8.15Z" transform="translate(0 0.04)"/><polygon class="cls-9" points="761.67 190.51 761.67 187.39 720.65 187.39 720.65 179.24 761.67 179.24 761.67 176.12 674.21 176.12 674.21 190.51 761.67 190.51"/><rect class="cls-7" x="674.21" y="176.12" width="39.64" height="14.39"/><path class="cls-11" d="M761.67,187.35h0c-1.27-.11-2.27-1.88-2.27-4.07s1-4,2.27-4.06H717.6v8.15Z" transform="translate(0 0.04)"/><polygon class="cls-9" points="772 285.04 772 282.86 712.02 282.86 712.02 277.15 772 277.15 772 274.97 644.11 274.97 644.11 285.04 772 285.04"/><rect class="cls-7" x="644.11" y="274.97" width="57.97" height="10.07"/><path class="cls-11" d="M772,282.81h0c-1.85-.08-3.32-1.32-3.32-2.85a3.18,3.18,0,0,1,3.32-2.84H707.55v5.7Z" transform="translate(0 0.04)"/><polygon class="cls-12" points="650.96 244.91 650.96 248.03 694.91 248.03 694.91 256.18 650.96 256.18 650.96 259.3 744.69 259.3 744.69 244.91 650.96 244.91"/><rect class="cls-13" x="702.2" y="244.91" width="53.95" height="14.39"/><path class="cls-11" d="M651,248h0c1.35.11,2.43,1.88,2.43,4.07s-1.08,4-2.43,4.06H750V248Z" transform="translate(0 0.04)"/><path class="cls-11" d="M702.34,248H651c1.35.11,2.43,1.88,2.43,4.07s-1.08,4-2.43,4.06h51.38Z" transform="translate(0 0.04)"/><polygon class="cls-12" points="655.8 206.18 655.8 209.3 692.22 209.3 692.22 217.45 655.8 217.45 655.8 220.57 733.47 220.57 733.47 206.18 655.8 206.18"/><rect class="cls-13" x="698.26" y="206.18" width="44.7" height="14.39"/><path class="cls-11" d="M655.8,209.26h0c1.12.1,2,1.88,2,4.06s-.89,4-2,4.07h82.1v-8.15Z" transform="translate(0 0.04)"/><path class="cls-11" d="M698.38,209.26H655.8c1.12.1,2,1.88,2,4.06s-.89,4-2,4.07h42.58Z" transform="translate(0 0.04)"/><polygon class="cls-14" points="766.6 274.97 766.6 271.57 716.98 271.57 716.98 262.7 766.6 262.7 766.6 259.3 666.99 259.3 666.99 274.97 766.6 274.97"/><rect class="cls-15" x="655.47" y="259.3" width="54.18" height="15.66"/><path class="cls-11" d="M766.6,271.53h0c-1.36-.12-2.44-2-2.44-4.43s1.08-4.3,2.44-4.42h-105v8.87Z" transform="translate(0 0.04)"/><path class="cls-11" d="M709.52,271.53H766.6c-1.36-.12-2.44-2-2.44-4.43s1.08-4.3,2.44-4.42H709.52Z" transform="translate(0 0.04)"/><polygon class="cls-14" points="749.86 206.18 749.86 202.78 711.27 202.78 711.27 193.91 749.86 193.91 749.86 190.51 672.38 190.51 672.38 206.18 749.86 206.18"/><rect class="cls-15" x="663.42" y="190.51" width="42.15" height="15.66"/><path class="cls-11" d="M749.86,202.74h0c-1.06-.12-1.9-2-1.9-4.43s.84-4.31,1.9-4.42H668.2v8.87Z" transform="translate(0 0.04)"/><path class="cls-11" d="M705.46,202.74h44.4c-1.06-.12-1.9-2-1.9-4.43s.84-4.31,1.9-4.42h-44.4Z" transform="translate(0 0.04)"/><rect class="cls-11" x="733.99" y="242.75" width="28.37"/><path class="cls-11" d="M760.79,239.9c0-1.51.7-2.74,1.57-2.81H727v5.63h35.35C761.49,242.64,760.79,241.41,760.79,239.9Z" transform="translate(0 0.04)"/><path class="cls-8" d="M752.51,164.22h2v-3.29H686.77v15.16h67.69v-3.29h-2c-.65-.12-1.16-2-1.16-4.29S751.86,164.33,752.51,164.22Z" transform="translate(0 0.04)"/><rect class="cls-10" x="686.77" y="160.96" width="37.36" height="15.16"/><path class="cls-11" d="M751.35,168.5c0-2.3.51-4.17,1.16-4.28h-26v8.58h26C751.86,172.67,751.35,170.8,751.35,168.5Z" transform="translate(0 0.04)"/><path class="cls-16" d="M967.94,229.4c-5.34-1.33-9.2-2.44-8.29-7.46.43-2.39,1.87-4,4.77-5.48,2.35-1.17,3.54-1.6,4.27-3.54,1.1-2.94-.29-5.35,2.09-8,2.56-2.87,8.06-2.58,10.61-5.26,2.21-2.32,3.23-4.88,8.22-5.78,4.43-.8,7.12,1.43,5.61,3.71-.87,1.32-2.74,2.47-3.29,3.87s.59,2.33,1.71,3.47c2.65,2.69,4,5.94-1.14,8.68-3.08,1.64-5.43,3-3.88,5.75,1.77,3.07,2.68,5-2,7.66-3.53,2-6.81,1.86-10.77,2-3.56.14-8.19,1-11.1-.37Z" transform="translate(0 0.04)"/><path class="cls-8" d="M956.56,229.34c-3.81,2.41-7.07,4.3-12.71,1.44-2.86-1.46-4.11-3.22-4-5.73.06-2,.3-2.87-1.79-4.38-3.26-2.37-7.94-3.23-10-6.29-2.28-3.3,2.81-5.42,1-8.39-1.61-2.57-4.62-5-1.75-7.22,2.34-1.81,7.17-.73,9,1.36,1,1.19,1.24,2.54,2.59,3.69s3.05,1.39,4.93,1.79c4.16.88,7.9,2.37,8.24,5.52.21,1.94.53,3.55,3.67,4.38,3.32.87,5.17,1.44,5.79,4.39.47,2.28-.78,3.57-2.07,5.39s-2.29,4.49-5,5.49Z" transform="translate(0 0.04)"/><path class="cls-4" d="M971.85,226.16h-.51c-.22,0-.38-.13-.36-.26s.2-.24.44-.21a10.69,10.69,0,0,0,6.89-2.52c1.21-1,1.1-1.92,1-3.07l-.1-1c-.26-2.49-.48-4.63,2.78-6.57,3.62-2.16,4.5-3.49,4.32-6.49,0-.24,0-.5-.07-.76a7.45,7.45,0,0,1,.12-3,5.46,5.46,0,0,1,1-1.48,3.31,3.31,0,0,0,1-1.79c0-.13.18-.24.4-.24h0c.22,0,.4.11.4.24a3.65,3.65,0,0,1-1.08,2,5,5,0,0,0-.9,1.37,7.14,7.14,0,0,0-.1,2.85c0,.27.05.53.06.78.2,3.12-.78,4.58-4.55,6.83-3,1.79-2.81,3.74-2.55,6.21l.1.94a3.14,3.14,0,0,1-1.11,3.38A11.74,11.74,0,0,1,971.85,226.16Z" transform="translate(0 0.04)"/><path class="cls-4" d="M981,219.57a2.86,2.86,0,0,1-1.67-.51c-.15-.1-.13-.25,0-.34a.63.63,0,0,1,.57,0,1.83,1.83,0,0,0,1.35.33c1.69-.25,3.53-2.39,3.83-3.19.88-2.36,1.93-3.56,5.84-4.45a.51.51,0,0,1,.52.14c.08.12,0,.26-.23.3-3.76.86-4.55,2-5.34,4.11-.27.72-2.16,3.21-4.42,3.55A3.68,3.68,0,0,1,981,219.57Z" transform="translate(0 0.04)"/><path class="cls-4" d="M956.79,228.1a6.88,6.88,0,0,1-2.12-.31c-2.8-.87-4.1-3.43-5.25-5.7a12.79,12.79,0,0,0-1.74-2.86,18.9,18.9,0,0,0-7-4.53c-3.94-1.7-4.89-3-5.6-5.77-.58-2.27-1.36-4.56-3.1-5.92-.13-.1-.09-.25.08-.33a.6.6,0,0,1,.57,0c1.84,1.44,2.65,3.8,3.25,6.13.68,2.68,1.54,3.84,5.27,5.46a20,20,0,0,1,7.21,4.68,13.18,13.18,0,0,1,1.81,3c1.1,2.17,2.34,4.63,4.84,5.41a6.74,6.74,0,0,0,3.34.1.52.52,0,0,1,.51.15c.06.13,0,.26-.27.3A9.86,9.86,0,0,1,956.79,228.1Z" transform="translate(0 0.04)"/><path class="cls-4" d="M944.41,216.41a.64.64,0,0,1-.24,0c-.18-.08-.21-.23-.08-.33,1.18-.9.46-2.34-.3-3.85-.67-1.32-1.35-2.69-.77-3.8a.52.52,0,0,1,.51-.15c.21,0,.33.17.26.29-.51,1,.14,2.27.77,3.52.79,1.57,1.6,3.18.17,4.28A.55.55,0,0,1,944.41,216.41Z" transform="translate(0 0.04)"/><path class="cls-4" d="M948.44,219.62l-.15,0a12.55,12.55,0,0,1-1.44-.44,6.74,6.74,0,0,0-2.26-.5c-.52,0-1,0-1.48,0a9.43,9.43,0,0,1-3.26-.27,18.72,18.72,0,0,1-5.47-2.83c-.26-.19-.58-.48-.93-.8a7.36,7.36,0,0,0-1.79-1.34c-.21,0-.35-.16-.31-.28a.43.43,0,0,1,.45-.19c.63.06,1.3.63,2.32,1.55.34.3.65.59.89.76a18.24,18.24,0,0,0,5.21,2.71,8.07,8.07,0,0,0,2.83.22c.5,0,1-.05,1.59,0a8,8,0,0,1,2.63.56,12.29,12.29,0,0,0,1.32.41c.2.05.3.18.22.31A.46.46,0,0,1,948.44,219.62Z" transform="translate(0 0.04)"/><path class="cls-17" d="M954.94,229.85c-5.71-2.84-12.5-4.75-11-10.17,1.27-4.48,10-5.63,7.29-10.46-1.76-3.08-6.3-6.64-4.75-10.08,1.65-3.68,9.78-2.21,11.53-5.64,1.47-2.9-3.7-6.25.9-8.62,4.06-2.09,11.26-.11,13.44,2.29,2.79,3.07-1.82,5.35-1.06,8.34.49,1.93,3.63,2.21,5.93,3.33s4.62,2.76,5.58,4.37c3,5-5.5,6.77-8.07,10.6-2.42,3.61,5.84,4.73,6.46,8.36.69,4-6.59,7.19-12.45,7.84C964.73,230.47,958.55,231.65,954.94,229.85Z" transform="translate(0 0.04)"/><path class="cls-4" d="M961.51,231h-.11c-.22,0-.34-.17-.28-.29s4.61-9.31.73-19.12c-2.45-6.21-.23-10.55,1.55-14,1.06-2.07,2-3.87,1.48-5.45,0-.13.11-.26.32-.28s.43.06.47.19c.54,1.7-.4,3.54-1.5,5.68-1.75,3.43-3.94,7.71-1.53,13.79,3.92,9.94-.7,19.27-.74,19.36A.47.47,0,0,1,961.51,231Z" transform="translate(0 0.04)"/><path class="cls-4" d="M962.53,211.54c-.2,0-.37-.08-.4-.2s.12-.25.34-.27c3.34-.3,7.15-2.1,7.51-4.3,0-.26.07-.55.1-.86.15-1.44.33-3.24,2.11-4.1a6.75,6.75,0,0,1,3.47-.48c.22,0,.38.13.35.26s-.22.22-.45.21a5.59,5.59,0,0,0-2.85.37c-1.51.74-1.69,2.42-1.83,3.77,0,.31-.06.61-.1.87-.41,2.5-4.57,4.4-8.19,4.73Z" transform="translate(0 0.04)"/><path class="cls-4" d="M960.1,211.6a8.94,8.94,0,0,1-4-.83,4.26,4.26,0,0,1-2.37-4.24c0-.19,0-.41,0-.65.12-1.37.29-3.44-1.15-4.38a3.68,3.68,0,0,0-1.89-.48c-.22,0-.4-.11-.39-.24s.19-.24.41-.23h0a4.67,4.67,0,0,1,2.45.63c1.67,1.08,1.49,3.27,1.36,4.72,0,.24,0,.45,0,.64a3.84,3.84,0,0,0,2.09,3.87,9.79,9.79,0,0,0,5.29.64c.23,0,.43.07.47.2s-.12.25-.34.27A17,17,0,0,1,960.1,211.6Z" transform="translate(0 0.04)"/><path class="cls-4" d="M964.84,227.13a5.89,5.89,0,0,1-1.46-.17c-.2-.05-.3-.19-.22-.31a.54.54,0,0,1,.53-.13c2.42.59,6.13-1,7.53-2.09a5.66,5.66,0,0,0,1.37-1.86c.73-1.3,1.48-2.65,3.53-2.95a.45.45,0,0,1,.48.18c.06.13-.07.25-.29.28-1.61.24-2.29,1.46-2.95,2.64a6.12,6.12,0,0,1-1.51,2A13.45,13.45,0,0,1,964.84,227.13Z" transform="translate(0 0.04)"/><path class="cls-4" d="M961.26,227a7.65,7.65,0,0,1-1.56-.16,11.54,11.54,0,0,1-6.36-4.07,5.46,5.46,0,0,1-.62-2.73c-.1-1.66-.2-3.38-2.05-3.92-.2-.06-.28-.2-.18-.32a.58.58,0,0,1,.54-.11c2.27.67,2.39,2.62,2.5,4.33a5,5,0,0,0,.56,2.56,10.78,10.78,0,0,0,5.88,3.81,5.82,5.82,0,0,0,3-.12.6.6,0,0,1,.55.09c.1.12,0,.26-.17.32A6.48,6.48,0,0,1,961.26,227Z" transform="translate(0 0.04)"/><path class="cls-9" d="M935.73,228.45a29,29,0,0,0-4.56,15.61c0,16.53,13.92,29.94,31.08,29.94s31.07-13.41,31.07-29.94a29,29,0,0,0-4.56-15.61Z" transform="translate(0 0.04)"/><path class="cls-8" d="M992,235.55a29,29,0,0,0-3.27-7.1h-53a29,29,0,0,0-3.27,7.1Z" transform="translate(0 0.04)"/><path class="cls-18" d="M437.62,277.47c0,9.19-55.21,16.64-123.31,16.64S191,286.66,191,277.47c0-6.5,27.67-12.14,68-14.87,16.63-1.14,35.42-1.77,55.31-1.77,8.17,0,16.16.11,23.89.31C394.87,262.65,437.62,269.38,437.62,277.47Z" transform="translate(0 0.04)"/><ellipse class="cls-19" cx="298.4" cy="275.72" rx="47.33" ry="5.19"/><ellipse class="cls-18" cx="298.2" cy="236.54" rx="44.75" ry="42.95"/><rect class="cls-20" x="284.48" y="261.95" width="27.84" height="22.9"/><polygon class="cls-21" points="348.72 267.49 347.13 275.37 357.47 276.8 364.23 273.22 363.83 267.49 348.72 267.49"/><path class="cls-22" d="M296.61,119.65s-.8,8.23-2.79,8.59,4.38,14.67,4.38,14.67h9.55l7.55-1.79-3.58-7.87s-4.77-5.73-1.19-10.38S296.61,119.65,296.61,119.65Z" transform="translate(0 0.04)"/><path class="cls-19" d="M296.61,119.65s-.8,8.23-2.79,8.59,4.38,14.67,4.38,14.67h9.55l7.55-1.79-3.58-7.87s-4.77-5.73-1.19-10.38S296.61,119.65,296.61,119.65Z" transform="translate(0 0.04)"/><path class="cls-23" d="M276.72,182.63s-10.34,17.9-2,21.48,10.34,3.22,10.34,4.29-1.59.72-.79,2.51-1.59,8.94.79,13.24,1.59,7.51,1.59,7.51a5.39,5.39,0,0,0,.8,1.79c.8,1.43,1.19,2.51.8,3.22s-2.79,5.37-.4,6.45,14.71,1.79,15.91,0-1.2-2.87,0-3.94,2-1.43,1.19-2.15-1.59-9.66-1.59-9.66,2-10.38,1.19-11.81-2-2.86-1.19-3.94,1.59-.71,2-2.14,1.19-4.66,1.19-4.66l4.38-.35,10.34,1.78s11.54,11.46,24.26,15c0,0,3.58,3.22,4.78,3.22s1.19,0,.79.71-1.59.72-.79,1.43,2-.35,1.19.72-1.59,1.07-.79,1.79-.4,4.65-.4,5-3.58,34-2.39,34.71,17.9,2.87,19.09,0-.79-6.44-.79-6.44,6-42.94,4.37-45.81-7.16-15.74-37-24c0,0-8.35-1.44-8.35-2.51s-.8-7.87-2.39-8.23-10.74-.72-10.74-.72l-11.53,3.22-15.91-2.5Z" transform="translate(0 0.04)"/><path class="cls-23" d="M290.64,242.76l-2,6.44s-1.59,10.38.4,12.88a12.8,12.8,0,0,0,9.53,4.8,6.41,6.41,0,0,0,6.67-4,1.41,1.41,0,0,0,.11-.46c0-.71-1.19-9.3-1.19-9.3l-2-8.95-.4-2.51Z" transform="translate(0 0.04)"/><path class="cls-23" d="M348.72,273.54s-2-1.79-2.39,0-2,9.3.8,9.66,29.43,3.93,32.21,2.5,8-3.58,4.78-4.65-12.33-4.29-12.33-4.29-5.17-6.09-6-6.45-5.17.36-7.16,1.79S348.72,273.54,348.72,273.54Z" transform="translate(0 0.04)"/><ellipse class="cls-22" cx="306.15" cy="116.11" rx="12.33" ry="11.09"/><path class="cls-21" d="M305,141.12l-4.77-4.65-5.29-9.31s-3.86-1.07-4.66.72-15.11,7.51-15.11,7.51,3.58,30.07,2,32.93-4.38,14.31-2,15.39,13.52,0,17.1,1.43,13.92,1.43,16.71-.36,3.58-3.22,6.36-2.15c2.37.92,7.92-30.33,9.51-39.64a4.06,4.06,0,0,0-1.95-4.12c-3.57-2.25-10-6.13-11.14-5.62C310.13,134,305,141.12,305,141.12Z" transform="translate(0 0.04)"/><path class="cls-21" d="M322.07,139.69h0a4.41,4.41,0,0,1,3.54,3.65l3.22,26s-8,15.39-11.94,5S322.07,139.69,322.07,139.69Z" transform="translate(0 0.04)"/><path class="cls-21" d="M321.27,171.9l8.75-2.15s1.59,10,3.18,10-5.57,5.73-9.15,5-8.75-3.22-9.14-5,3.58-9.3,3.58-9.3Z" transform="translate(0 0.04)"/><path class="cls-23" d="M296.85,120.86c.83-1.67.69-3.61,1.38-5.33,1.33-3.29,5.38-5,9-3.79a6.83,6.83,0,0,1,1.68.8c.9.57,1.79,1.37,2.88,1.26s2.22-1.29,3.29-.86.87,2.4,2.08,2.85a1.62,1.62,0,0,0,1.76-.65,3.66,3.66,0,0,0,.51-1.78,7.76,7.76,0,0,0-.41-4.53,11,11,0,0,1-.81-1.46,4.42,4.42,0,0,1-.15-1.45,9.52,9.52,0,0,0-1.16-5.21,8.45,8.45,0,0,0-5.32-3.3,22.44,22.44,0,0,0-6.6-.24c-3.65.28-7.45.87-10.32,2.91a3.7,3.7,0,0,0-1,.94,4.58,4.58,0,0,0-.53,1.37,26.62,26.62,0,0,1-2.77,6.54,13.3,13.3,0,0,0-1.43,2.78,3.27,3.27,0,0,0,.35,3,12.11,12.11,0,0,0,2,1.62c.65.56.95,1.63,1.67,2.06s1.37.11,2,.5C295.82,119.35,295.88,120.45,296.85,120.86Z" transform="translate(0 0.04)"/><path class="cls-24" d="M307,146.49l1.19-2.15s17.51,4.65,21.09,8.95c0,0,8.75-5,13.52-4.3l4.77.72-14.71,11.81-18.7-1.43Z" transform="translate(0 0.04)"/><path class="cls-20" d="M306.15,144.34l-16.3,20.4,23.46,10.38s2.2,1.07,3.89,0l15.61-6.44,14.71-19-14.71,6.8a3.63,3.63,0,0,0-4.78-1.43Z" transform="translate(0 0.04)"/><path class="cls-22" d="M331.21,180.49,334.4,173s7.16-8.23,3.18-12.17-8.35,11.46-8.35,11.46Z" transform="translate(0 0.04)"/><path class="cls-22" d="M294.5,179.29l6.94-5.07s10.79-3.89,9.54-9.09-13.61,6.14-13.61,6.14Z" transform="translate(0 0.04)"/><path class="cls-19" d="M277.32,143.09h-.4s-6.17-6.62-7.36,2.33-5.17,38.65,5.17,39.72a27,27,0,0,0,17.7-4.47s7.56-10.38,4.77-10.38a81.74,81.74,0,0,0-8.35-.36c-3.56.2-6.77,1.1-6.56.18C282.69,168.32,288.45,145.59,277.32,143.09Z" transform="translate(0 0.04)"/><path class="cls-21" d="M276.72,136.11l-1.59-.72s-6.37,1.08-7.56,10-5.17,38.65,5.17,39.72S297,183.71,297,183.71s2.78-13.6,0-13.6-17.11,1.79-16.71,0S287.86,138.62,276.72,136.11Z" transform="translate(0 0.04)"/><polygon class="cls-21" points="325.45 176.41 329.83 170.37 332.61 180.35 325.45 183.21 325.45 176.41"/><ellipse class="cls-24" cx="235.34" cy="80.5" rx="10.74" ry="9.66"/><rect class="cls-24" x="200" y="150.44" width="40.07" height="41.61"/><polygon class="cls-24" points="454.54 175.96 465.77 194 477 212.04 454.54 212.04 432.08 212.04 443.31 194 454.54 175.96"/><path class="cls-19" d="M113.24,73.21q-.24,6.42-3.48,10.3A9.8,9.8,0,0,1,102,87.38c-2.43,0-4.55-1.26-6.38-3.79s-2.74-6.42-2.74-11.67c0-1.16,0-2.27.09-3.32s.14-2,.23-3L94.85,52H84.21q-2.76,25.88-4.54,30.78c-1.18,3.28-3.19,4.91-6,4.91a5.38,5.38,0,0,1-3.41-1.28A4.11,4.11,0,0,1,68.64,83q0-1.9,3.34-5.33t3.71-6.24L78.45,52H74a8.7,8.7,0,0,0-3.61.81,6.64,6.64,0,0,0-2.61,1.89l-2,2.65H64.17q2.25-6.3,5.55-9.47a10.59,10.59,0,0,1,7.58-3.17h35.2V52H100.61c-.37,3.32-.65,6.63-.85,10s-.3,6.65-.3,10a8.33,8.33,0,0,0,1.75,5.51,5.47,5.47,0,0,0,4.38,2.12A6.2,6.2,0,0,0,109,78.37a4.25,4.25,0,0,0,2-3.09l.21-1.43c0-.35.07-.56.07-.64Z" transform="translate(0 0.04)"/><path class="cls-20" d="M456.24,137.91q-.24,6.42-3.48,10.3a9.78,9.78,0,0,1-7.72,3.88c-2.43,0-4.55-1.27-6.38-3.8s-2.74-6.41-2.74-11.66c0-1.17,0-2.27.09-3.32s.14-2.05.23-3l1.61-13.63H427.21q-2.76,25.86-4.54,30.78c-1.18,3.27-3.19,4.91-6,4.91a5.39,5.39,0,0,1-3.41-1.29,4.1,4.1,0,0,1-1.61-3.4q0-1.91,3.34-5.32t3.71-6.24l2.76-19.44H417a8.54,8.54,0,0,0-3.61.8,6.84,6.84,0,0,0-2.61,1.89l-2,2.65h-1.61a24.34,24.34,0,0,1,5.55-9.47,10.63,10.63,0,0,1,7.58-3.17h35.2v7.3H443.61q-.56,5-.85,10t-.3,10a8.35,8.35,0,0,0,1.75,5.51,5.46,5.46,0,0,0,4.38,2.11,6.12,6.12,0,0,0,3.38-1.18,4.23,4.23,0,0,0,2-3.09c.09-.6.16-1.08.21-1.43s.07-.56.07-.64Z" transform="translate(0 0.04)"/><path class="cls-4" d="M.48,448a5.24,5.24,0,0,0-.21-1.48A5.13,5.13,0,0,0,.48,445a5.56,5.56,0,0,0-.2-1.47,6.18,6.18,0,0,0,.12-1.17,5.15,5.15,0,0,0-.12-1.07,5.24,5.24,0,0,0,.12-1.14,5.87,5.87,0,0,0-.07-.86,5.73,5.73,0,0,0,.07-.85,5.13,5.13,0,0,0-.12-1.06,5.2,5.2,0,0,0,.12-1.15,6.26,6.26,0,0,0,0-.63c0-.16,0-.31,0-.47a5.6,5.6,0,0,0-.15-1.27A5.85,5.85,0,0,0,.4,432.6a5.54,5.54,0,0,0-.13-1.18,5.66,5.66,0,0,0,.13-1.2,5.8,5.8,0,0,0-.09-1,6.41,6.41,0,0,0,.09-1,4.81,4.81,0,0,0-.06-.77,6,6,0,0,0,.06-.76,5.26,5.26,0,0,0-.14-1.16,5.24,5.24,0,0,0,.14-1.22,2.83,2.83,0,0,0,0-.3,1.49,1.49,0,0,0,0-.21,5.25,5.25,0,0,0-.12-1.08,5.11,5.11,0,0,0,.12-1.14,5.15,5.15,0,0,0-.16-1.28,5.71,5.71,0,0,0,.07-.84,4.48,4.48,0,0,0-.06-.65,5.19,5.19,0,0,0,.06-.8,4.56,4.56,0,0,0-.07-.76,6,6,0,0,0,.07-.86c0-.11,0-.2,0-.31A5.09,5.09,0,0,0,.4,415a5.78,5.78,0,0,0-.12-1.14,6.07,6.07,0,0,0,.12-1.16,4.71,4.71,0,0,0-.07-.78,5.71,5.71,0,0,0,.07-.84,5.4,5.4,0,0,0-.16-1.25,5.32,5.32,0,0,0,.16-1.3,5.19,5.19,0,0,0-.32-1.83c.08-5.72.14-11.43.15-17.15A5.16,5.16,0,0,0,0,388H0c17.86,0,32.34,13.79,32.34,30.8S18,449.52.24,449.62A5.09,5.09,0,0,0,.48,448Z" transform="translate(0 0.04)"/><path class="cls-6" d="M.34,89.23a4.93,4.93,0,0,0,0-.55c0-13,.19-26.05.13-39.06a2.83,2.83,0,0,0,0-.3h4V64.89H20.15v8.76H4.43V89.23Z" transform="translate(0 0.04)"/><path class="cls-6" d="M274.2,450.18l-.54,0c-13,0-26.05-.19-39.07-.12h-.3v-4h15.58V430.37h8.76v15.72H274.2Z" transform="translate(0 0.04)"/></g></g></svg>