<svg xmlns="http://www.w3.org/2000/svg" xmlns:xlink="http://www.w3.org/1999/xlink" viewBox="0 0 1050.67 450.18"><defs><style>.cls-1,.cls-20{isolation:isolate;}.cls-2{fill:url(#linear-gradient);}.cls-3{fill:#9881b7;opacity:0.55;}.cls-12,.cls-3{mix-blend-mode:multiply;}.cls-4{fill:#fff;}.cls-5{fill:#292c3d;}.cls-6{fill:#fff9fd;}.cls-7{fill:#0230e4;}.cls-8{fill:#afeaf0;}.cls-9{fill:#ff4c6b;}.cls-10{fill:#e8a393;}.cls-11{fill:#da395b;}.cls-12{fill:#00a1cc;opacity:0.65;}.cls-13{fill:#f9a57e;}.cls-14{fill:#e76f59;}.cls-15{fill:#d8d8d8;}.cls-16{fill:#e6e6e6;}.cls-17{fill:#6c63ff;}.cls-18{fill:#a0616a;}.cls-19{fill:#2f2e41;}.cls-20{opacity:0.2;}.cls-21{fill:#3f3d56;}.cls-22{fill:#f2f2f2;}.cls-23{fill:#b3b3b3;}</style><linearGradient id="linear-gradient" x1="525.26" y1="-272.88" x2="525.26" y2="262.69" gradientUnits="userSpaceOnUse"><stop offset="0" stop-color="#00c9ff"/><stop offset="0.27" stop-color="#00caf0"/><stop offset="0.78" stop-color="#00cbca"/><stop offset="1" stop-color="#00ccb8"/></linearGradient></defs><title>bnr3</title><g class="cls-1"><g id="Layer_1" data-name="Layer 1"><rect class="cls-2" x="0.26" width="1050" height="450"/><ellipse class="cls-3" cx="516.87" cy="273.85" rx="493.4" ry="26.15"/><path class="cls-4" d="M802.2,374.51h12.14v-3.07H802.2Zm28.36,0h16.22v-3.07H830.56Zm32.43,0h16.22v-3.07H863Zm32.44,0h16.21v-3.07H895.43Zm32.43,0h15.63V371h-4v.45H927.86Zm11.58-15.81h4V346.4h-4Zm0-24.59h4v-12.3h-4Zm0-24.59h4v-12.3h-4Z" transform="translate(0.26)"/><ellipse class="cls-4" cx="941.73" cy="297.55" rx="7.62" ry="5.78"/><path class="cls-4" d="M950.1,297.55c0,3.61-3.87,6.54-8.64,6.54s-8.63-2.93-8.63-6.54,3.87-6.55,8.63-6.55,8.64,2.94,8.64,6.55Zm-15.24,0c0,2.76,3,5,6.6,5s6.61-2.25,6.61-5-3-5-6.61-5-6.6,2.24-6.6,5Z" transform="translate(0.26)"/><path class="cls-4" d="M802.64,378.75c-4.21,0-7.63-2.59-7.63-5.78s3.42-5.78,7.63-5.78,7.62,2.59,7.62,5.78S806.84,378.75,802.64,378.75Z" transform="translate(0.26)"/><path class="cls-4" d="M802.64,379.52c4.76,0,8.63-2.94,8.63-6.55s-3.87-6.54-8.63-6.54S794,369.36,794,373s3.87,6.55,8.64,6.55Zm0-11.56c3.64,0,6.6,2.25,6.6,5s-3,5-6.6,5-6.61-2.24-6.61-5,3-5,6.61-5Z" transform="translate(0.26)"/><path class="cls-4" d="M98.49,411.62h12.74v-3.3H103.7v-5.14H98.49Zm33.58,0h20.84v-3.3H132.07ZM98.49,390h5.21v-13.2H98.49Zm0-26.41h5.21V350.35H98.49Z" transform="translate(0.26)"/><path class="cls-4" d="M185.9,416.17c5.41,0,9.8-2.78,9.8-6.2s-4.39-6.21-9.8-6.21-9.79,2.78-9.79,6.21S180.49,416.17,185.9,416.17Z" transform="translate(0.26)"/><path class="cls-4" d="M185.9,417c-6.12,0-11.1-3.16-11.1-7s5-7,11.1-7,11.1,3.16,11.1,7-5,7-11.1,7Zm0-12.41c-4.68,0-8.49,2.41-8.49,5.38s3.81,5.38,8.49,5.38,8.49-2.41,8.49-5.38-3.8-5.38-8.49-5.38Z" transform="translate(0.26)"/><path class="cls-4" d="M91.3,347c0-3.42,4.39-6.2,9.8-6.2s9.79,2.78,9.79,6.2-4.38,6.21-9.79,6.21S91.3,350.46,91.3,347Z" transform="translate(0.26)"/><path class="cls-4" d="M90,347c0,3.88,5,7,11.1,7s11.09-3.16,11.09-7-5-7-11.09-7S90,343.16,90,347Zm19.59,0c0,3-3.81,5.38-8.49,5.38S92.61,350,92.61,347s3.8-5.38,8.49-5.38,8.49,2.41,8.49,5.38Z" transform="translate(0.26)"/><path class="cls-4" d="M302,421.74V347.17h36.34V359.4H321v16.65h12.92v12.68H321v20.82h17.51v12.19Z" transform="translate(0.26)"/><path class="cls-4" d="M346.06,421.74V347.17h20.46a56.52,56.52,0,0,1,13.19,1.28A17.92,17.92,0,0,1,388,352.7,16.09,16.09,0,0,1,392.3,360,40.51,40.51,0,0,1,393.54,371v26.9a40.76,40.76,0,0,1-1.24,11,16.26,16.26,0,0,1-4.33,7.33,17.76,17.76,0,0,1-8.26,4.27,55.7,55.7,0,0,1-13.14,1.28Zm19-12.59h1.78a15.91,15.91,0,0,0,3.87-.38,3.86,3.86,0,0,0,2.15-1.37,5.22,5.22,0,0,0,.94-2.19,20.43,20.43,0,0,0,.21-3.35v-35a20.07,20.07,0,0,0-.21-3.33,4.86,4.86,0,0,0-.94-2.11,3.79,3.79,0,0,0-2.15-1.31,16.59,16.59,0,0,0-3.87-.36h-1.78Z" transform="translate(0.26)"/><path class="cls-4" d="M427,422.91a37.62,37.62,0,0,1-11.33-1.46,15.89,15.89,0,0,1-7.3-4.54,18,18,0,0,1-3.87-7.36,40.52,40.52,0,0,1-1.14-10.34v-52h18.91v55.1a21.36,21.36,0,0,0,.14,2.61,13.72,13.72,0,0,0,.56,2.36,3.79,3.79,0,0,0,1.46,2,4.5,4.5,0,0,0,2.57.69,4.55,4.55,0,0,0,2.58-.69,3.77,3.77,0,0,0,1.45-2,11.93,11.93,0,0,0,.54-2.36c.07-.72.11-1.59.11-2.61v-55.1h19v52a39.53,39.53,0,0,1-1.17,10.34,18.37,18.37,0,0,1-3.87,7.36,15.73,15.73,0,0,1-7.3,4.54A37.66,37.66,0,0,1,427,422.91Z" transform="translate(0.26)"/><path class="cls-4" d="M484.52,422.91a33.86,33.86,0,0,1-11.35-1.68,16.73,16.73,0,0,1-7.45-5,21,21,0,0,1-4-7.78A39.59,39.59,0,0,1,460.5,398V371a39.82,39.82,0,0,1,1.24-10.53,21,21,0,0,1,4-7.78,16.63,16.63,0,0,1,7.45-5A33.6,33.6,0,0,1,484.52,346a36.61,36.61,0,0,1,9.32,1.06,20.11,20.11,0,0,1,6.63,2.92,15.22,15.22,0,0,1,4.23,4.63,19.48,19.48,0,0,1,2.32,5.92,33.54,33.54,0,0,1,.68,7v6.71H489v-8.19a25.5,25.5,0,0,0-.1-2.59,11.11,11.11,0,0,0-.49-2.25,3.43,3.43,0,0,0-1.38-1.93,4.52,4.52,0,0,0-2.53-.65,4.46,4.46,0,0,0-2.17.49A4,4,0,0,0,481,360.3a5.2,5.2,0,0,0-.72,1.8,15.06,15.06,0,0,0-.33,2c-.05.57-.07,1.25-.07,2v36.7c0,.78,0,1.46.07,2a11.85,11.85,0,0,0,.35,2,5.8,5.8,0,0,0,.75,1.8,3.5,3.5,0,0,0,1.38,1.17,4.52,4.52,0,0,0,2.13.47,4.44,4.44,0,0,0,2.53-.65,3.38,3.38,0,0,0,1.38-1.95,11.35,11.35,0,0,0,.49-2.28,25.15,25.15,0,0,0,.1-2.58v-8.55H507.7v6.66A34,34,0,0,1,507,408a20.2,20.2,0,0,1-2.32,6,15.28,15.28,0,0,1-4.23,4.74,20.38,20.38,0,0,1-6.63,3A34.75,34.75,0,0,1,484.52,422.91Z" transform="translate(0.26)"/><path class="cls-4" d="M513.27,421.74l14.1-74.57h22.1l13.95,74.57H546.05l-2.43-14.88H533.55l-2.34,14.88Zm21.78-25.41h7l-3.51-27.84Z" transform="translate(0.26)"/><path class="cls-4" d="M576.67,421.74V360.66H565.34V347.17H607v13.49H595.68v61.08Z" transform="translate(0.26)"/><path class="cls-4" d="M613.9,421.74V347.17h19v74.57Z" transform="translate(0.26)"/><path class="cls-4" d="M678.54,421.27a40.06,40.06,0,0,1-22.69,0,16.75,16.75,0,0,1-7.44-4.9,19.93,19.93,0,0,1-4-7.69,39.85,39.85,0,0,1-1.22-10.46V370.69a39.77,39.77,0,0,1,1.22-10.45,19.9,19.9,0,0,1,4-7.7,16.83,16.83,0,0,1,7.44-4.9,40.06,40.06,0,0,1,22.69,0,17,17,0,0,1,7.49,4.9,20,20,0,0,1,4,7.7,38.89,38.89,0,0,1,1.24,10.45v27.53a39,39,0,0,1-1.24,10.46,20,20,0,0,1-4,7.69A16.92,16.92,0,0,1,678.54,421.27Zm-11.35-11a4.41,4.41,0,0,0,2.52-.65,3.52,3.52,0,0,0,1.41-1.91,11.5,11.5,0,0,0,.54-2.29,23.26,23.26,0,0,0,.11-2.57V366a23.26,23.26,0,0,0-.11-2.57,11.18,11.18,0,0,0-.54-2.27,3.58,3.58,0,0,0-1.41-1.89,4.49,4.49,0,0,0-2.52-.65,4.37,4.37,0,0,0-2.16.49,3.82,3.82,0,0,0-1.33,1.15,4.87,4.87,0,0,0-.68,1.8,11.63,11.63,0,0,0-.26,1.89c0,.49,0,1.18,0,2v36.83c0,.84,0,1.52,0,2a11.83,11.83,0,0,0,.26,1.91,4.87,4.87,0,0,0,.68,1.8,4.08,4.08,0,0,0,1.33,1.17A4.26,4.26,0,0,0,667.19,410.27Z" transform="translate(0.26)"/><path class="cls-4" d="M701.6,421.74V347.17h13.49l14.19,31.93V347.17H745v74.57H732L717.9,386.66v35.08Z" transform="translate(0.26)"/><rect class="cls-4" x="969.82" y="83.52" width="2.18" height="10.03"/><rect class="cls-4" x="969.82" y="103.58" width="2.18" height="10.03"/><rect class="cls-4" x="969.82" y="183.82" width="2.18" height="5.93"/><rect class="cls-4" x="969.82" y="123.64" width="2.18" height="10.03"/><rect class="cls-4" x="969.82" y="143.7" width="2.18" height="10.03"/><rect class="cls-4" x="969.82" y="163.76" width="2.18" height="10.03"/><polygon class="cls-4" points="969.82 33.36 970.91 33.36 970.91 34.08 979.17 34.08 979.17 31.57 969.82 31.57 969.82 33.36"/><rect class="cls-4" x="969.82" y="63.45" width="2.18" height="10.03"/><rect class="cls-4" x="1022.82" y="31.57" width="8.73" height="2.51"/><rect class="cls-4" x="1040.28" y="31.57" width="8.73" height="2.51"/><rect class="cls-4" x="1005.36" y="31.57" width="8.73" height="2.51"/><rect class="cls-4" x="987.9" y="31.57" width="8.73" height="2.51"/><rect class="cls-4" x="969.82" y="43.39" width="2.18" height="10.03"/><ellipse class="cls-4" cx="970.91" cy="189.48" rx="4.1" ry="4.71"/><path class="cls-4" d="M966,189.48c0-2.94,2.09-5.34,4.65-5.34s4.65,2.4,4.65,5.34-2.09,5.35-4.65,5.35-4.65-2.4-4.65-5.35Zm8.21,0a3.59,3.59,0,1,0-3.56,4.09,3.85,3.85,0,0,0,3.56-4.09Z" transform="translate(0.26)"/><path class="cls-4" d="M1050.31,258.06a5.79,5.79,0,0,1,0-1.5,5.45,5.45,0,0,1,0-1.21,5.71,5.71,0,0,1,.11-1.7c-.08-3.56-.33-7.12-.35-10.68,0-7.79.14-15.55,0-23.35a4.19,4.19,0,0,1,0-.62h-34.66a3.35,3.35,0,0,0-3.47,3.21v41.38a3.35,3.35,0,0,0,3.47,3.22h11l-10.84,18.25,24.12-18.25h10.37a5.14,5.14,0,0,1-.06-.55A70.06,70.06,0,0,1,1050.31,258.06Z" transform="translate(0.26)"/><path d="M1040.71,254h-8.42v-7.33h8.42Z" transform="translate(0.26)"/><path d="M1050.41,253.65c-.06-2.34-.18-4.67-.26-7h-4.63V254h4.83C1050.36,253.86,1050.39,253.76,1050.41,253.65Z" transform="translate(0.26)"/><path class="cls-4" d="M903.82,50.55c-9.49,0-18.88-.48-28.28.49a59.11,59.11,0,0,1-19.27-1.49,13.1,13.1,0,0,1-6.42-3.38c-1.91-1.76-4.4-3.74-1.5-6.12,6.35-5.23,13.82,5.33,19.89-1.11-.66-2.53-2.9-6.33-1.85-9.81.68-2.27,4.42-3.34,5.57-3.6,4.26-1,9.58-.77,13.45,2.89C890.11,32.85,894.82,32,900,32c2.31,0,12-2.41,13,4.48.63,4-1.82,2.23.3,5.9,1.53,2.63,4.32,2.15,6.11,2.13,1.15,0,4.36-.61,5.21,1.85,1.2,3.5-.63,5.5-1.94,6.17C919.43,54.23,906.65,50.55,903.82,50.55Z" transform="translate(0.26)"/><path class="cls-4" d="M43.61,139.4c-.85-2.46-4.06-1.87-5.21-1.85-1.79,0-4.58.5-6.11-2.13-2.12-3.67.33-1.9-.3-5.9C30.91,122.63,21.26,125,19,125c-5.13,0-9.84.81-14.54-3.62A11.82,11.82,0,0,0,0,118.78q0,12.27,0,24.54c0,.11,0,.21,0,.32,7.61-.39,15.22-.09,22.9-.09,2.83,0,15.61,3.68,18.85,2C43,144.9,44.81,142.9,43.61,139.4Z" transform="translate(0.26)"/><path class="cls-4" d="M649.43,34.67c5,.37,10,1.71,15.1.63a12.66,12.66,0,0,1,6.44.54c4.71,1.48,9.07,0,13.58-.84,2.75-.53,6.1.26,8.67-2.49,5.09-5.46-2.13-8-4.4-7.53-4,.84-7.49.34-11-3.48-1.82-2-3.67-2-5.66-2.42-1.62-.32-4.34-2-5.87-.39-.67.7-1,2.31-1.83,3.06-1.21,1.05-2.75,1-4,1.12-2.4.29-4.54-1.36-6.88-1.81-1.59-.29-13.33-4-13.95.05-.44,2.93,4.23,2.68,3.87,5.59-.26,2-5.29,1.88-6.17,2.15-1.33.41-6.45,0-6.5,4,3.69,2.47,7.24,2.82,11.1,2.83a1.71,1.71,0,0,0,.55-.09h0A17.83,17.83,0,0,1,649.43,34.67Z" transform="translate(0.26)"/><path class="cls-4" d="M144.43,83.67c5,.37,10,1.71,15.1.63a12.66,12.66,0,0,1,6.44.54c4.71,1.48,9.07,0,13.58-.84,2.75-.53,6.1.26,8.67-2.49,5.09-5.46-2.13-8-4.4-7.53-4,.84-7.49.34-11-3.48-1.82-2-3.67-2-5.66-2.42-1.62-.32-4.34-2-5.87-.39-.67.7-1,2.31-1.83,3.06-1.21,1-2.75,1-4,1.12-2.4.29-4.54-1.36-6.88-1.81-1.59-.29-13.33-4-14,0-.44,2.93,4.23,2.68,3.87,5.59-.26,2-5.29,1.88-6.17,2.15-1.33.41-6.45,0-6.5,4,3.69,2.47,7.24,2.82,11.1,2.83a1.71,1.71,0,0,0,.55-.09h0A17.83,17.83,0,0,1,144.43,83.67Z" transform="translate(0.26)"/><path class="cls-4" d="M837.12,190.29H786.69l-27,20,12.15-20H759.43a3.71,3.71,0,0,1-3.89-3.51V141.51a3.71,3.71,0,0,1,3.89-3.51h77.69a3.71,3.71,0,0,1,3.88,3.51v45.27A3.71,3.71,0,0,1,837.12,190.29Z" transform="translate(0.26)"/><path class="cls-5" d="M809.92,157.38c0,6-8.4,7.82-8.4,10.17v.94h-8.39v-2.23c0-3.24,6.38-5.1,6.38-8.7a3.06,3.06,0,0,0-3.24-3.11c-2.65,0-3.19,1.87-3.19,3.73a9.63,9.63,0,0,0,0,1.2h-9c-.05-.57-.15-1.11-.15-1.69,0-5.77,5.69-9.36,13.4-9.36C804.86,148.33,809.92,151.88,809.92,157.38Zm-7.66,22h-9.72v-8.22h9.72Z" transform="translate(0.26)"/><polygon class="cls-6" points="931.9 195.89 916.17 195.89 916.17 180.32 907.33 180.32 907.33 195.89 891.61 195.89 891.61 204.65 907.33 204.65 907.33 220.23 916.17 220.23 916.17 204.65 931.9 204.65 931.9 195.89"/><polygon class="cls-6" points="594.9 169.89 579.17 169.89 579.17 154.32 570.33 154.32 570.33 169.89 554.61 169.89 554.61 178.65 570.33 178.65 570.33 194.23 579.17 194.23 579.17 178.65 594.9 178.65 594.9 169.89"/><path class="cls-7" d="M251.54,212.76H149.12A5.35,5.35,0,0,1,144,207.2V135.56a5.35,5.35,0,0,1,5.12-5.56H251.54a5.36,5.36,0,0,1,5.13,5.56V207.2A5.36,5.36,0,0,1,251.54,212.76Z" transform="translate(0.26)"/><rect class="cls-8" x="149.39" y="136.59" width="102.42" height="69.57"/><polygon class="cls-9" points="185.32 156.94 185.32 191.02 215.87 173.98 185.32 156.94"/><rect class="cls-4" x="71.16" y="139.9" width="6.12" height="8.6"/><rect class="cls-4" x="71.16" y="174.31" width="6.12" height="8.6"/><rect class="cls-4" x="71.16" y="191.52" width="6.12" height="8.13"/><rect class="cls-4" x="39.64" y="30.51" width="24.5" height="2.15"/><path class="cls-4" d="M-.21,30.51a5.93,5.93,0,0,1,0,1v.12a4.62,4.62,0,0,1-.07.65c0,.12,0,.23,0,.35H14.88V30.51Z" transform="translate(0.26)"/><rect class="cls-4" x="71.16" y="157.1" width="6.12" height="8.6"/><rect class="cls-4" x="71.16" y="71.06" width="6.12" height="8.6"/><rect class="cls-4" x="71.16" y="53.85" width="6.12" height="8.6"/><rect class="cls-4" x="71.16" y="36.64" width="6.12" height="8.6"/><rect class="cls-4" x="71.16" y="122.69" width="6.12" height="8.6"/><rect class="cls-4" x="71.16" y="105.48" width="6.12" height="8.6"/><rect class="cls-4" x="71.16" y="88.27" width="6.12" height="8.6"/><path class="cls-4" d="M62.44,199.42c0,2.23,5.16,4,11.52,4s11.51-1.81,11.51-4-5.16-4-11.51-4S62.44,197.19,62.44,199.42Z" transform="translate(0.26)"/><path class="cls-4" d="M60.91,199.42c0-2.53,5.85-4.58,13-4.58s13,2,13,4.58S81.15,204,74,204s-13-2.06-13-4.58Zm23,0c0-1.94-4.48-3.51-10-3.51s-10,1.57-10,3.51,4.48,3.5,10,3.5,10-1.57,10-3.5Z" transform="translate(0.26)"/><polygon class="cls-6" points="315.81 98.55 304.11 109.06 293.71 97.47 287.13 103.39 297.53 114.97 285.84 125.48 291.69 132 303.39 121.49 313.8 133.07 320.38 127.16 309.97 115.58 321.66 105.07 315.81 98.55"/><polygon class="cls-6" points="51.81 386.55 40.11 397.06 29.71 385.47 23.13 391.39 33.53 402.97 21.84 413.48 27.69 420 39.39 409.49 49.8 421.07 56.38 415.16 45.97 403.58 57.66 393.07 51.81 386.55"/><ellipse class="cls-4" cx="886.46" cy="414.55" rx="24.8" ry="25.55"/><path class="cls-4" d="M273.82,38.55c-9.49,0-18.88-.48-28.28.49a59.11,59.11,0,0,1-19.27-1.49,13.1,13.1,0,0,1-6.42-3.38c-1.91-1.76-4.4-3.74-1.5-6.12,6.35-5.23,13.82,5.33,19.89-1.11-.66-2.53-2.9-6.33-1.85-9.81.68-2.27,4.42-3.34,5.57-3.6,4.26-1,9.58-.77,13.45,2.89C260.11,20.85,264.82,20,270,20c2.31,0,12-2.41,13,4.48.63,4-1.82,2.23.3,5.9,1.53,2.63,4.32,2.15,6.11,2.13,1.15,0,4.36-.61,5.21,1.85,1.2,3.5-.63,5.5-1.94,6.17C289.43,42.23,276.65,38.55,273.82,38.55Z" transform="translate(0.26)"/><path class="cls-4" d="M255.18,368.76H205.62L179.05,387,191,368.76H178.82c-2.11,0-3.82-1.43-3.82-3.21V324.21c0-1.77,1.71-3.21,3.82-3.21h76.36c2.11,0,3.82,1.44,3.82,3.21v41.34C259,367.33,257.29,368.76,255.18,368.76Z" transform="translate(0.26)"/><path d="M212.84,359.91v-6.32h7.65v6.32Zm2.48-8.31L213,328.85h8.14l-3,22.75Z" transform="translate(0.26)"/><path class="cls-10" d="M725.33,100.34a7,7,0,0,1-2.89-2,3.76,3.76,0,0,0-1.07-1.18A8.46,8.46,0,0,1,720,95.9a3.56,3.56,0,0,0-1.5-1.11c-.79-.21-.56.68-.3,1.25s2.31,1.76,2,2.43-2.63-.86-3.09-1.16c-1.1-.73-1-1.62-1.5-2.6-.3-.58-.64-.76-1.07-.13-.31.47,0,1.06.16,1.53a6.46,6.46,0,0,0,2,2.64,7.72,7.72,0,0,1-2.16-2.29c-.31-.5-1.19-2.81-2.14-2.47-1.91.7,1.81,5.17,2.84,5.65a9.62,9.62,0,0,1-2.34-2.2c-.41-.47-1.32-1.62-1.75-.64-.65,1.46,2.51,3.16,3.77,4.14a12.34,12.34,0,0,1-2.68-1.65c-1.15-.78-1.42.22-.41,1.19a17.46,17.46,0,0,0,1.66,1.25,12.41,12.41,0,0,0,6.79,2.08c1,.08,2.78,1.15,3.5.71C725.21,103.66,725.09,101.57,725.33,100.34Z" transform="translate(0.26)"/><path class="cls-11" d="M723.92,97.87s21.84,5.22,24.05,5.1,7.33-16.61,9.38-24.75c.19-.75,3.1-.8,6.39-3.18,1.36-1,5.38.9,6.73,0a7,7,0,0,1,1.72,8.69c-5,9.43-9.25,27.53-20.71,27.72-15.15.24-30.51-6.54-30.51-6.54Z" transform="translate(0.26)"/><path class="cls-10" d="M719.22,100.13a17.37,17.37,0,0,0,1-1.66c.27-.67-1.76-1.81-2-2.43s-.49-1.46.3-1.25A3.56,3.56,0,0,1,720,95.9a8.46,8.46,0,0,0,1.37,1.25,3.76,3.76,0,0,1,1.07,1.18,4.14,4.14,0,0,0,.93.89C722.54,99.86,719.22,100.13,719.22,100.13Z" transform="translate(0.26)"/><path class="cls-5" d="M713.63,157.5s-2,8.06-3.91,8.82-21.66-3.41-22.8-5.33.47-3.91,4.69-3.77c3.8.12,6.29,1.33,9.37.93,2.7-.34,5.34-4.74,5.34-4.74Z" transform="translate(0.26)"/><path class="cls-5" d="M747.22,175.83s5.06,7,4.32,8.68-18.36,10.44-20.73,9.74-2.83-3.1.33-5.51c2.83-2.17,5.6-2.79,7.5-4.9,1.66-1.86,0-6.6,0-6.6Z" transform="translate(0.26)"/><path class="cls-7" d="M776.81,116.33s-8,3.56-11.69,3.14-35.55,1.74-39.27,4.37,11.51,55.27,11.51,55.27L750,177.3s-4.52-38.47-3.77-38.75,19.8-.22,52.28-.22c7.93,0,16.76-14.28,6.74-24.27Z" transform="translate(0.26)"/><path class="cls-12" d="M731.33,128.11a28.52,28.52,0,0,0,3.55-7.38c11-1.16,27.63-1.55,30.24-1.26,3.71.42,11.69-3.14,11.69-3.14l1.83-.15c-2.28,2.81-5,5.25-8.31,5.89-4,.76-8.23,1-12.19,1.85-6.85,1.56-13.65,4.64-16.71,10.5-3.68,7-7.61,14.42-10.15,22.29-2.08-8-4.2-16.35-5.43-23C728.27,132.72,730,130,731.33,128.11Z" transform="translate(0.26)"/><path class="cls-7" d="M773.52,110.46s-37.89,1.94-41.5,5-28,39-28,39l10.05,6.22s20-25.26,29.6-35.11a14.89,14.89,0,0,1,8.57-4.21c4.1-.59,10.09-1.36,14.57-1.57,7.52-.35,10.93-3.57,10.93-3.57Z" transform="translate(0.26)"/><path class="cls-13" d="M763.79,60.27a14.19,14.19,0,0,0,3.12-2.16c.93,3.13,3.12,8.85,7.31,11.53,0,0-7.43,3.55-14,3,0,0-.26-7.53-2.09-11.05A14.56,14.56,0,0,0,763.79,60.27Z" transform="translate(0.26)"/><path class="cls-14" d="M763.79,60.27a14.19,14.19,0,0,0,3.12-2.16c.93,3.13,3.12,8.85,7.31,11.53,0,0-7.43,3.55-14,3,0,0-.26-7.53-2.09-11.05A14.56,14.56,0,0,0,763.79,60.27Z" transform="translate(0.26)"/><path class="cls-13" d="M757.41,40.87s-9.72.52-11.81,2.9-2.15,7.69-.47,10.24-.52,6.87-.18,7.88c.28.81,3.35.45,3.58.72s2.59,5.14,6.77,4.71c5.88-.59,11.38-6.64,12.59-10.23S766.32,39.85,757.41,40.87Z" transform="translate(0.26)"/><path class="cls-5" d="M741.39,46.52c.28-.55,1.17-1.57,1.23-2.17a9.37,9.37,0,0,1,.08-1.51c.43-1.53.26-2.49,3.75-4.86,3-2.06,7.91-2.44,11.49-1.47a11.51,11.51,0,0,1,3.64,1.67c.32.23,1.28.84,1.27,1.19s-1.18,1.13-1.49,1.46a14.85,14.85,0,0,0-1.34,2c-2.73,4.06-7.6,9.06-13.67,6.67A21.89,21.89,0,0,1,744,48.42a9.38,9.38,0,0,0,1,5.34A5.68,5.68,0,0,1,742.16,52C740.45,49.66,740.71,47.82,741.39,46.52Z" transform="translate(0.26)"/><path class="cls-5" d="M759.64,40.24c.83-.83,2.87-1.33,4.06-1.48a5.61,5.61,0,0,1,5.59,2.46,18.12,18.12,0,0,1,2,3.36,12.61,12.61,0,0,1,1.36,5.62,11.9,11.9,0,0,1-1.42,6.13c-1,1.71-3.4,4.08-5.14,4.05-.67,0-3.12-3.32-3.38-4.31s.25-1.13.9-1.8c1.08-1.13,2-3,.38-4.07-2.36-1.57-4.62.25-4.32,3.4,0,0-.34,1.94-1,1.88S751.61,48.26,759.64,40.24Z" transform="translate(0.26)"/><path class="cls-9" d="M811.47,117.06s-11.32,10.46-41.13,3.24a48.2,48.2,0,0,0-4.17-12.66c-3.16-6.29-8.29-18.64-9.3-25.34-1.15-7.55,3.23-11.45,3.23-11.45s5.63,3.58,12.48-2.5c0,0,14.74,1.47,23.37,14.79S811.47,117.06,811.47,117.06Z" transform="translate(0.26)"/><path class="cls-11" d="M770.51,79.19c.1-.31.18-.64.27-1,7.14,3,6.24,8.9,4.52,17.81-1.32,6.86-5.15,17.68-5.91,20.11a46.94,46.94,0,0,0-3.22-8.5c-1.46-2.9-3.33-7.1-5-11.44A41.9,41.9,0,0,0,767,85.65C768,83.41,769.78,81.5,770.51,79.19Z" transform="translate(0.26)"/><path class="cls-4" d="M721.78,94.06,696.72,81.25S687.59,88.93,685,99.4l28.44,11.43S717.88,101.88,721.78,94.06Z" transform="translate(0.26)"/><path class="cls-15" d="M702.4,102.09c5.83-1.48,12-5.42,15-10.29l4.42,2.26c-3.9,7.82-8.34,16.77-8.34,16.77l-20.76-8.34A24,24,0,0,0,702.4,102.09Z" transform="translate(0.26)"/><path class="cls-13" d="M721.86,107.27a8.3,8.3,0,0,1-3.7-.39,4.76,4.76,0,0,0-1.63-.51,10.57,10.57,0,0,1-1.94-.43,4.12,4.12,0,0,0-2-.27c-.81.19-.06.83.51,1.2s3,.45,3.23,1.13-2.76.47-3.34.42c-1.39-.12-1.83-.93-2.87-1.52-.62-.35-1-.35-1,.38,0,.54.63.91,1.08,1.22a8.25,8.25,0,0,0,3.32,1.34,10.12,10.12,0,0,1-3.24-1c-.57-.28-2.75-1.84-3.34-1.12-1.19,1.46,4.73,3.56,5.9,3.5a11.56,11.56,0,0,1-3.34-.8c-.64-.22-2.13-.78-1.89.26.35,1.52,4.09,1.53,5.76,1.78a13.67,13.67,0,0,1-3.29-.17c-1.46-.14-1.07.83.39,1.19a18.89,18.89,0,0,0,2.17.3,12.67,12.67,0,0,0,7-1.32c.91-.39,3.07-.28,3.4-1C723.8,110.15,722.4,108.43,721.86,107.27Z" transform="translate(0.26)"/><path class="cls-9" d="M721.27,106.44l-.73,7.21s36.14,2.49,40.28.23,6.11-5.95,7.42-9.25c2.62-6.61,12.94-24.82,3.64-27.6-2.91-.86-6.77-.84-8.72,2.42-4.35,7.3-9,23.59-10.25,24.28C751.18,104.7,721.27,106.44,721.27,106.44Z" transform="translate(0.26)"/><path class="cls-16" d="M331.09,255.3s-49.21-23.92-31.92-40.5S331.09,255.3,331.09,255.3Z" transform="translate(0.26)"/><path class="cls-16" d="M330.24,260.88s-22.63-78.45,10.69-74.7S330.24,260.88,330.24,260.88Z" transform="translate(0.26)"/><path class="cls-16" d="M313.74,253.92l.95,13.12,0,.23c0,2.05.09,4.1.29,6.14,1.29,13.38,6.83,19.48,13.3,19.48s11.77-6.1,13.06-19.48q.3-3.06.3-6.14V267l.95-13.12Z" transform="translate(0.26)"/><path class="cls-4" d="M341.67,267v.23q0,3.08-.3,6.14H315c-.2-2-.29-4.09-.29-6.14l0-.23Z" transform="translate(0.26)"/><path class="cls-16" d="M652.1,263.32S614,244.81,627.39,232,652.1,263.32,652.1,263.32Z" transform="translate(0.26)"/><path class="cls-16" d="M651.44,267.64s-17.51-60.73,8.28-57.83S651.44,267.64,651.44,267.64Z" transform="translate(0.26)"/><path class="cls-16" d="M638.67,262.26l.74,10.16v.17a47.06,47.06,0,0,0,.23,4.75c1,10.37,5.28,15.09,10.29,15.09s9.12-4.72,10.11-15.09a47.06,47.06,0,0,0,.23-4.75v-.17l.74-10.16Z" transform="translate(0.26)"/><path class="cls-4" d="M660.29,272.42v.17a47.06,47.06,0,0,1-.23,4.75h-20.4a47.06,47.06,0,0,1-.23-4.75v-.17Z" transform="translate(0.26)"/><path class="cls-16" d="M414.28,94.46V76.61h-2.63V94.46a3.76,3.76,0,0,0-1.93,4.81,3.44,3.44,0,0,0,4.56,2,3.78,3.78,0,0,0,1.94-4.82A3.61,3.61,0,0,0,414.28,94.46Z" transform="translate(0.26)"/><path class="cls-16" d="M420.42,274.58h-18V44.23h-7V274.58h-18c-9,0-16.22,7.66-16.22,17.11h75.38c0-9.45-7.26-17.11-16.21-17.11Z" transform="translate(0.26)"/><path class="cls-17" d="M361.29,78.46H436.6L432,17.71A8.16,8.16,0,0,0,424.08,10H373.8a8.15,8.15,0,0,0-7.9,7.71Z" transform="translate(0.26)"/><path class="cls-18" d="M466.14,185.08h0a5.46,5.46,0,0,0-6.23,4.71v.08l-2.12,14.68,7.21,2,5.28-13.68a5.84,5.84,0,0,0-3-7.46A5.18,5.18,0,0,0,466.14,185.08Z" transform="translate(0.26)"/><path class="cls-17" d="M466,204.52c4,16.8,2.28,32.15-12.63,44.21-17.88-5.2-29.77-17.75-37-36A9.3,9.3,0,0,1,421,200.82l.36-.15h0a8.32,8.32,0,0,1,9.49,2.58l17.54,21.37,8.24-21.55Z" transform="translate(0.26)"/><path class="cls-16" d="M557.62,292.62c-16.33-.92-26.47-6.83-28.92-19l2.63-5.09L561.43,283a4.56,4.56,0,0,1,2.09,5.89,4.33,4.33,0,0,1-2.39,2.33Z" transform="translate(0.26)"/><path class="cls-16" d="M545,292.74a235.31,235.31,0,0,0-24.37.37,5.26,5.26,0,0,1-5.5-5l-.47-6.12-6.57-11.1,5.7-6c9.57,10.06,20.07,18.52,32.54,23.54a2.46,2.46,0,0,1,.59,3.3A2.23,2.23,0,0,1,545,292.74Z" transform="translate(0.26)"/><path class="cls-19" d="M498.9,249.14c-10.84,20.46-21.49,34.25-35.5,41.63-17.24,6-29.84-1.95-39.66-18.27l28.48-19.89,4.17,4.39,37.73-30.3a4.63,4.63,0,0,1,6.77.16l32.19,41.71-4,6.94Z" transform="translate(0.26)"/><polygon class="cls-19" points="508.8 273.19 493.9 249.14 497.41 242.2 517.13 263.94 508.8 273.19"/><ellipse class="cls-18" cx="422.9" cy="180.68" rx="14.9" ry="15.73"/><path class="cls-18" d="M426.58,209.82l-16.65-6A22.74,22.74,0,0,0,413,189.93h13.58A80.13,80.13,0,0,0,426.58,209.82Z" transform="translate(0.26)"/><path class="cls-17" d="M462.08,251.92c-2.49,1.08-2.68,4.59-5,5.78-11.41,5.76-23.48,10.44-31.77,18.73-19.37-13.88-37.32-57-14-75.86,7.95,4.91,15.05,8.43,14.9,0Z" transform="translate(0.26)"/><path class="cls-20" d="M452,233.41l-8.1-3-16,13.18-7.17-27.25c-.5-1.89-1.3-.93-2.46.39a8.3,8.3,0,0,0-12.18.49,9.4,9.4,0,0,0-2.28,5.78c-.86,19.76,4.79,36.48,18.83,49.27C441,268.12,448.8,255,452,238l-.87-.61Q451.61,235.47,452,233.41Z" transform="translate(0.26)"/><path class="cls-19" d="M424.65,160c4.91,1.18,10.5,2.86,10.82,4.42,5,1.35,8.87,4.57,9.65,9.48a2.92,2.92,0,0,1-2.31,3.37,2.63,2.63,0,0,1-.49,0c-2.75,0-6.87-.32-9.6-1.52-7.92,5.39-9.25,19.39-5.79,28.92l-5.44-.52-5.63-17.4-1.44,16.71L402,201.77l1.6-21.31a32.85,32.85,0,0,1,4.72-14.07,11.9,11.9,0,0,1,.89-1.22A15.27,15.27,0,0,1,424.65,160Z" transform="translate(0.26)"/><polygon class="cls-21" points="452.92 212.79 466.56 229.72 487.02 204.24 473.19 186.54 452.92 212.79"/><path class="cls-22" d="M483.25,204.82l-16.22-14c.92-2.33,5.35-1.55,5.35-1.55l12.69,13.58a7.77,7.77,0,0,1,1.13,1.59h0Z" transform="translate(0.26)"/><path class="cls-21" d="M484,203.85l-18.43-15.17L445.1,221.35l19.26,13.71a4.14,4.14,0,0,0,3.69-.58l18.79-30.34Z" transform="translate(0.26)"/><polygon class="cls-17" points="467.95 193.67 468.12 193.41 479.92 202.36 479.74 202.61 467.95 193.67"/><polygon class="cls-17" points="464.59 230.41 480.07 205.71 480.32 205.88 464.84 230.58 464.59 230.41"/><polygon class="cls-17" points="450.26 221.67 450.43 221.42 462.96 231.15 462.79 231.4 450.26 221.67"/><polygon class="cls-17" points="449.85 218.15 465.88 193.84 466.13 194.02 450.1 218.33 449.85 218.15"/><polygon class="cls-23" points="470.71 189.21 470.84 189.07 485.42 203.19 485.3 203.34 470.71 189.21"/><polygon class="cls-23" points="469.5 189.33 469.62 189.19 484.86 203.39 484.74 203.53 469.5 189.33"/><polygon class="cls-23" points="468.55 189.62 468.67 189.47 484.49 203.39 484.37 203.54 468.55 189.62"/><path class="cls-18" d="M460,217.76h0a5.25,5.25,0,0,0-7.55,1.43l0,.07-7.88,12.3,5.7,5.09,10.33-10a5.94,5.94,0,0,0,.35-8.08A5.53,5.53,0,0,0,460,217.76Z" transform="translate(0.26)"/><path class="cls-17" d="M452,235.26c-3.2,17-11,30.08-29.36,34.23C408.6,256.7,403,240,403.81,220.22a8.82,8.82,0,0,1,9-8.68l.38,0h0a8.76,8.76,0,0,1,7.53,6.62l7.17,27.25,16.19-15.75Z" transform="translate(0.26)"/><polygon class="cls-21" points="673.04 293.15 286.26 293.15 286.26 292.14 673.22 292.14 673.04 293.15"/><path class="cls-16" d="M488.16,52.33a.9.9,0,0,0-.88.92v72.16a.9.9,0,0,0,.88.92h57a.9.9,0,0,0,.88-.92V53.25a.9.9,0,0,0-.88-.92Z" transform="translate(0.26)"/><path class="cls-4" d="M494.07,119.16h45.14V59.5H494.07Z" transform="translate(0.26)"/><path class="cls-16" d="M583,71.29a.54.54,0,0,0-.52.55v35.9a.53.53,0,0,0,.52.55h40.82a.54.54,0,0,0,.52-.55V71.84a.54.54,0,0,0-.52-.55Z" transform="translate(0.26)"/><path class="cls-4" d="M586.54,75.57V104h33.75V75.57Z" transform="translate(0.26)"/><path class="cls-16" d="M524.61,57.41H508.67a2.24,2.24,0,0,1-2.19-2.29,2.34,2.34,0,0,1,.3-1.17l8-14.57,0,0a2.15,2.15,0,0,1,1.66-1.11h.21a2.14,2.14,0,0,1,1.9,1.16l8,14.57a2.36,2.36,0,0,1-.8,3.15,2,2,0,0,1-1.1.31ZM508.23,55.1a.6.6,0,0,0,.06.23.41.41,0,0,0,.38.23h15.94a.39.39,0,0,0,.38-.23.47.47,0,0,0,0-.46L517,40.3a.42.42,0,0,0-.59-.17.46.46,0,0,0-.17.17l-8,14.57A.6.6,0,0,0,508.23,55.1Z" transform="translate(0.26)"/><ellipse class="cls-16" cx="516.91" cy="41.23" rx="1.31" ry="1.39"/><path class="cls-16" d="M607.74,72.45H599.1a1.22,1.22,0,0,1-1.19-1.25,1.26,1.26,0,0,1,.16-.63l4.32-7.9v0a1.16,1.16,0,0,1,.9-.6h.12a1.18,1.18,0,0,1,1,.63l4.32,7.9a1.29,1.29,0,0,1-.44,1.71,1.12,1.12,0,0,1-.59.17Zm-8.88-1.26a.28.28,0,0,0,0,.13.21.21,0,0,0,.21.12h8.64a.2.2,0,0,0,.2-.12.2.2,0,0,0,0-.13.19.19,0,0,0,0-.12l-4.32-7.9a.22.22,0,0,0-.32-.09.2.2,0,0,0-.09.09l-4.32,7.9a.27.27,0,0,0,0,.12Z" transform="translate(0.26)"/><ellipse class="cls-16" cx="603.68" cy="63.67" rx="0.71" ry="0.75"/><path class="cls-16" d="M494.59,96.44a11.86,11.86,0,0,1,6.69-6.62,10.94,10.94,0,0,1,9.56.63c3.42,1.91,6.15,4.92,9.63,6.76a23.55,23.55,0,0,0,23-.64.71.71,0,0,0,.2-1,.64.64,0,0,0-.87-.24,22.31,22.31,0,0,1-22.1.43c-3.48-1.93-6.24-5-9.79-6.85a12,12,0,0,0-9.74-.58,13.39,13.39,0,0,0-7.89,7.71c-.32.82,1,1.18,1.27.36Z" transform="translate(0.26)"/><path class="cls-16" d="M493.55,109.42a47.38,47.38,0,0,1,22.15.08c6.47,1.58,13.15,4.43,19.82,2.31a12.12,12.12,0,0,0,7.25-5.78c.41-.78-.73-1.48-1.14-.7-2.88,5.51-9.63,6.43-15,5.53-3.56-.6-7-1.81-10.51-2.68a48.66,48.66,0,0,0-22.95-.1c-.82.19-.47,1.53.35,1.34Z" transform="translate(0.26)"/><path class="cls-16" d="M493.08,78.4a49.2,49.2,0,0,1,21.05.79c6.44,1.66,12.74,5.47,19.55,4.81a12.31,12.31,0,0,0,8.41-4.07c.56-.67-.36-1.65-.93-1a10.92,10.92,0,0,1-7.24,3.64,22.06,22.06,0,0,1-9.23-1.31c-3.32-1.09-6.54-2.46-9.91-3.35a50.52,50.52,0,0,0-22-.87c-.83.15-.48,1.49.35,1.34Z" transform="translate(0.26)"/><path class="cls-16" d="M592.42,75.1a24.6,24.6,0,0,1,6,11.84,24.89,24.89,0,0,1-4.89,20.29c-.55.67.38,1.66.93,1a26.25,26.25,0,0,0-1.12-34.09c-.59-.64-1.52.34-.93,1Z" transform="translate(0.26)"/><path class="cls-16" d="M612.14,72.14a18.24,18.24,0,0,0-6.6,13.36,22.74,22.74,0,0,0,4.78,14.86,27.94,27.94,0,0,0,6.51,6.2c.71.49,1.37-.71.66-1.2a25.23,25.23,0,0,1-9.29-11.47,19.42,19.42,0,0,1,0-14.21,15,15,0,0,1,4.65-6.34c.67-.52,0-1.73-.67-1.2Z" transform="translate(0.26)"/><ellipse class="cls-16" cx="519.98" cy="79.62" rx="6.14" ry="6.48"/><path class="cls-6" d="M413.2,450.18l-.54,0c-13,0-26.05-.19-39.07-.12h-.3v-4h15.58V430.37h8.76v15.72H413.2Z" transform="translate(0.26)"/><path class="cls-4" d="M503.38,1.11A5.29,5.29,0,0,1,501.9.9a5.38,5.38,0,0,1-1.5.21A5.27,5.27,0,0,1,498.93.9a5.36,5.36,0,0,1-1.16.12,6.07,6.07,0,0,1-1.08-.11,5.8,5.8,0,0,1-1.14.11A5.73,5.73,0,0,1,494.7,1a5.73,5.73,0,0,1-.85.07A5.06,5.06,0,0,1,492.79.9a5.27,5.27,0,0,1-1.15.12A4.49,4.49,0,0,1,491,1a3.43,3.43,0,0,1-.47,0,5.6,5.6,0,0,1-1.27-.15A5.69,5.69,0,0,1,488,1,5.54,5.54,0,0,1,486.8.89a5.66,5.66,0,0,1-1.2.13,5.92,5.92,0,0,1-1-.09,5.21,5.21,0,0,1-1,.09,6.36,6.36,0,0,1-.77-.05,6.33,6.33,0,0,1-.76.05A5.26,5.26,0,0,1,481,.88a5.32,5.32,0,0,1-1.23.14h-.51a5.17,5.17,0,0,1-1.07-.11A6,6,0,0,1,477,1a5.69,5.69,0,0,1-1.28-.15,5.73,5.73,0,0,1-.85.07,4.62,4.62,0,0,1-.65-.07,5,5,0,0,1-.79.07,6.29,6.29,0,0,1-.77-.07,5.73,5.73,0,0,1-.85.07c-.11,0-.21,0-.31,0a6,6,0,0,1-1.14.11A5.09,5.09,0,0,1,469.23.9a5.46,5.46,0,0,1-1.17.12,4.92,4.92,0,0,1-.78-.07,5.46,5.46,0,0,1-.83.07,5,5,0,0,1-1.26-.16,5.32,5.32,0,0,1-1.3.16A5.14,5.14,0,0,1,462.07.7c-5.72.08-11.44.14-17.16.15A5.51,5.51,0,0,1,443.4.64v0C443.4,18.52,457.19,33,474.2,33S504.89,18.63,505,.87A5.46,5.46,0,0,1,503.38,1.11Z" transform="translate(0.26)"/><polyline class="cls-6" points="1050.04 438.13 1038.99 449.1 1032.75 442.82 1043.81 431.85 1032.73 420.69 1038.95 414.52 1050.03 425.68"/></g></g></svg>